solid 25 Girder_Default_sldprt
   facet normal 0.000000e+000 1.000000e+000 0.000000e+000
      outer loop
         vertex -4.400000e-001 1.000000e+000 1.720000e+000
         vertex -4.400000e-001 1.000000e+000 7.800000e-001
         vertex -5.000000e-001 1.000000e+000 1.720000e+000
      endloop
   endfacet
   facet normal 0.000000e+000 1.000000e+000 0.000000e+000
      outer loop
         vertex -5.000000e-001 1.000000e+000 1.720000e+000
         vertex -4.400000e-001 1.000000e+000 7.800000e-001
         vertex -5.000000e-001 1.000000e+000 7.800000e-001
      endloop
   endfacet
   facet normal 0.000000e+000 6.823183e-001 7.310553e-001
      outer loop
         vertex -4.400000e-001 1.000000e+000 7.800000e-001
         vertex -4.400000e-001 1.300000e+000 5.000000e-001
         vertex -5.000000e-001 1.000000e+000 7.800000e-001
      endloop
   endfacet
   facet normal 0.000000e+000 6.823183e-001 7.310553e-001
      outer loop
         vertex -5.000000e-001 1.000000e+000 7.800000e-001
         vertex -4.400000e-001 1.300000e+000 5.000000e-001
         vertex -5.000000e-001 1.300000e+000 5.000000e-001
      endloop
   endfacet
   facet normal 0.000000e+000 6.823183e-001 -7.310553e-001
      outer loop
         vertex -4.400000e-001 1.300000e+000 2.000000e+000
         vertex -4.400000e-001 1.000000e+000 1.720000e+000
         vertex -5.000000e-001 1.300000e+000 2.000000e+000
      endloop
   endfacet
   facet normal 0.000000e+000 6.823183e-001 -7.310553e-001
      outer loop
         vertex -5.000000e-001 1.300000e+000 2.000000e+000
         vertex -4.400000e-001 1.000000e+000 1.720000e+000
         vertex -5.000000e-001 1.000000e+000 1.720000e+000
      endloop
   endfacet
   facet normal -1.000000e+000 0.000000e+000 0.000000e+000
      outer loop
         vertex -1.020000e+000 1.300000e+000 6.000000e-002
         vertex -1.020000e+000 1.300000e+000 8.537025e-018
         vertex -1.020000e+000 0.000000e+000 6.000000e-002
      endloop
   endfacet
   facet normal -1.000000e+000 0.000000e+000 0.000000e+000
      outer loop
         vertex -1.020000e+000 0.000000e+000 6.000000e-002
         vertex -1.020000e+000 1.300000e+000 8.537025e-018
         vertex -1.020000e+000 0.000000e+000 0.000000e+000
      endloop
   endfacet
   facet normal 0.000000e+000 1.000000e+000 0.000000e+000
      outer loop
         vertex -5.000000e-001 1.300000e+000 5.000000e-001
         vertex -4.400000e-001 1.300000e+000 5.000000e-001
         vertex -5.000000e-001 1.300000e+000 6.000000e-002
      endloop
   endfacet
   facet normal 0.000000e+000 1.000000e+000 0.000000e+000
      outer loop
         vertex -5.000000e-001 1.300000e+000 6.000000e-002
         vertex -4.400000e-001 1.300000e+000 5.000000e-001
         vertex -4.400000e-001 1.300000e+000 0.000000e+000
      endloop
   endfacet
   facet normal 0.000000e+000 1.000000e+000 0.000000e+000
      outer loop
         vertex -5.000000e-001 1.300000e+000 6.000000e-002
         vertex -4.400000e-001 1.300000e+000 0.000000e+000
         vertex -1.020000e+000 1.300000e+000 6.000000e-002
      endloop
   endfacet
   facet normal 0.000000e+000 1.000000e+000 0.000000e+000
      outer loop
         vertex -1.020000e+000 1.300000e+000 6.000000e-002
         vertex -4.400000e-001 1.300000e+000 0.000000e+000
         vertex -1.020000e+000 1.300000e+000 8.537025e-018
      endloop
   endfacet
   facet normal -1.000000e+000 0.000000e+000 0.000000e+000
      outer loop
         vertex -1.020000e+000 0.000000e+000 2.440000e+000
         vertex -1.020000e+000 0.000000e+000 2.500000e+000
         vertex -1.020000e+000 1.300000e+000 2.440000e+000
      endloop
   endfacet
   facet normal -1.000000e+000 0.000000e+000 0.000000e+000
      outer loop
         vertex -1.020000e+000 1.300000e+000 2.440000e+000
         vertex -1.020000e+000 0.000000e+000 2.500000e+000
         vertex -1.020000e+000 1.300000e+000 2.500000e+000
      endloop
   endfacet
   facet normal 0.000000e+000 1.000000e+000 0.000000e+000
      outer loop
         vertex -1.020000e+000 1.300000e+000 2.440000e+000
         vertex -1.020000e+000 1.300000e+000 2.500000e+000
         vertex -5.000000e-001 1.300000e+000 2.440000e+000
      endloop
   endfacet
   facet normal 0.000000e+000 1.000000e+000 0.000000e+000
      outer loop
         vertex -5.000000e-001 1.300000e+000 2.440000e+000
         vertex -1.020000e+000 1.300000e+000 2.500000e+000
         vertex -4.400000e-001 1.300000e+000 2.500000e+000
      endloop
   endfacet
   facet normal 0.000000e+000 1.000000e+000 0.000000e+000
      outer loop
         vertex -5.000000e-001 1.300000e+000 2.440000e+000
         vertex -4.400000e-001 1.300000e+000 2.500000e+000
         vertex -5.000000e-001 1.300000e+000 2.000000e+000
      endloop
   endfacet
   facet normal 0.000000e+000 1.000000e+000 0.000000e+000
      outer loop
         vertex -5.000000e-001 1.300000e+000 2.000000e+000
         vertex -4.400000e-001 1.300000e+000 2.500000e+000
         vertex -4.400000e-001 1.300000e+000 2.000000e+000
      endloop
   endfacet
   facet normal 1.000000e+000 0.000000e+000 0.000000e+000
      outer loop
         vertex -4.400000e-001 1.300000e+000 2.000000e+000
         vertex -4.400000e-001 1.300000e+000 2.500000e+000
         vertex -4.400000e-001 1.000000e+000 1.720000e+000
      endloop
   endfacet
   facet normal 1.000000e+000 0.000000e+000 0.000000e+000
      outer loop
         vertex -4.400000e-001 1.000000e+000 1.720000e+000
         vertex -4.400000e-001 1.300000e+000 2.500000e+000
         vertex -4.400000e-001 6.000000e-002 2.500000e+000
      endloop
   endfacet
   facet normal 1.000000e+000 0.000000e+000 0.000000e+000
      outer loop
         vertex -4.400000e-001 1.000000e+000 1.720000e+000
         vertex -4.400000e-001 6.000000e-002 2.500000e+000
         vertex -4.400000e-001 1.000000e+000 7.800000e-001
      endloop
   endfacet
   facet normal 1.000000e+000 0.000000e+000 0.000000e+000
      outer loop
         vertex -4.400000e-001 1.000000e+000 7.800000e-001
         vertex -4.400000e-001 6.000000e-002 2.500000e+000
         vertex -4.400000e-001 6.000000e-002 0.000000e+000
      endloop
   endfacet
   facet normal 1.000000e+000 0.000000e+000 0.000000e+000
      outer loop
         vertex -4.400000e-001 1.000000e+000 7.800000e-001
         vertex -4.400000e-001 6.000000e-002 0.000000e+000
         vertex -4.400000e-001 1.300000e+000 5.000000e-001
      endloop
   endfacet
   facet normal 1.000000e+000 0.000000e+000 0.000000e+000
      outer loop
         vertex -4.400000e-001 1.300000e+000 5.000000e-001
         vertex -4.400000e-001 6.000000e-002 0.000000e+000
         vertex -4.400000e-001 1.300000e+000 0.000000e+000
      endloop
   endfacet
   facet normal 0.000000e+000 1.000000e+000 0.000000e+000
      outer loop
         vertex 4.400000e-001 6.000000e-002 0.000000e+000
         vertex -4.400000e-001 6.000000e-002 0.000000e+000
         vertex 4.400000e-001 6.000000e-002 2.500000e+000
      endloop
   endfacet
   facet normal 0.000000e+000 1.000000e+000 0.000000e+000
      outer loop
         vertex 4.400000e-001 6.000000e-002 2.500000e+000
         vertex -4.400000e-001 6.000000e-002 0.000000e+000
         vertex -4.400000e-001 6.000000e-002 2.500000e+000
      endloop
   endfacet
   facet normal 1.000000e+000 0.000000e+000 0.000000e+000
      outer loop
         vertex 1.020000e+000 0.000000e+000 0.000000e+000
         vertex 1.020000e+000 1.300000e+000 0.000000e+000
         vertex 1.020000e+000 0.000000e+000 6.000000e-002
      endloop
   endfacet
   facet normal 1.000000e+000 0.000000e+000 0.000000e+000
      outer loop
         vertex 1.020000e+000 0.000000e+000 6.000000e-002
         vertex 1.020000e+000 1.300000e+000 0.000000e+000
         vertex 1.020000e+000 1.300000e+000 6.000000e-002
      endloop
   endfacet
   facet normal 0.000000e+000 0.000000e+000 1.000000e+000
      outer loop
         vertex -5.000000e-001 0.000000e+000 6.000000e-002
         vertex -5.000000e-001 1.300000e+000 6.000000e-002
         vertex -1.020000e+000 0.000000e+000 6.000000e-002
      endloop
   endfacet
   facet normal 0.000000e+000 0.000000e+000 1.000000e+000
      outer loop
         vertex -1.020000e+000 0.000000e+000 6.000000e-002
         vertex -5.000000e-001 1.300000e+000 6.000000e-002
         vertex -1.020000e+000 1.300000e+000 6.000000e-002
      endloop
   endfacet
   facet normal -1.000000e+000 0.000000e+000 0.000000e+000
      outer loop
         vertex -5.000000e-001 1.300000e+000 5.000000e-001
         vertex -5.000000e-001 1.300000e+000 6.000000e-002
         vertex -5.000000e-001 1.000000e+000 7.800000e-001
      endloop
   endfacet
   facet normal -1.000000e+000 0.000000e+000 0.000000e+000
      outer loop
         vertex -5.000000e-001 1.000000e+000 7.800000e-001
         vertex -5.000000e-001 1.300000e+000 6.000000e-002
         vertex -5.000000e-001 0.000000e+000 6.000000e-002
      endloop
   endfacet
   facet normal -1.000000e+000 0.000000e+000 0.000000e+000
      outer loop
         vertex -5.000000e-001 1.000000e+000 7.800000e-001
         vertex -5.000000e-001 0.000000e+000 6.000000e-002
         vertex -5.000000e-001 1.000000e+000 1.720000e+000
      endloop
   endfacet
   facet normal -1.000000e+000 0.000000e+000 0.000000e+000
      outer loop
         vertex -5.000000e-001 1.000000e+000 1.720000e+000
         vertex -5.000000e-001 0.000000e+000 6.000000e-002
         vertex -5.000000e-001 0.000000e+000 2.440000e+000
      endloop
   endfacet
   facet normal -1.000000e+000 0.000000e+000 0.000000e+000
      outer loop
         vertex -5.000000e-001 1.000000e+000 1.720000e+000
         vertex -5.000000e-001 0.000000e+000 2.440000e+000
         vertex -5.000000e-001 1.300000e+000 2.000000e+000
      endloop
   endfacet
   facet normal -1.000000e+000 0.000000e+000 0.000000e+000
      outer loop
         vertex -5.000000e-001 1.300000e+000 2.000000e+000
         vertex -5.000000e-001 0.000000e+000 2.440000e+000
         vertex -5.000000e-001 1.300000e+000 2.440000e+000
      endloop
   endfacet
   facet normal 0.000000e+000 0.000000e+000 -1.000000e+000
      outer loop
         vertex -1.020000e+000 1.300000e+000 2.440000e+000
         vertex -5.000000e-001 1.300000e+000 2.440000e+000
         vertex -1.020000e+000 0.000000e+000 2.440000e+000
      endloop
   endfacet
   facet normal 0.000000e+000 0.000000e+000 -1.000000e+000
      outer loop
         vertex -1.020000e+000 0.000000e+000 2.440000e+000
         vertex -5.000000e-001 1.300000e+000 2.440000e+000
         vertex -5.000000e-001 0.000000e+000 2.440000e+000
      endloop
   endfacet
   facet normal 0.000000e+000 0.000000e+000 -1.000000e+000
      outer loop
         vertex 4.400000e-001 6.000000e-002 0.000000e+000
         vertex 4.400000e-001 1.300000e+000 0.000000e+000
         vertex 1.020000e+000 1.300000e+000 0.000000e+000
      endloop
   endfacet
   facet normal 0.000000e+000 0.000000e+000 -1.000000e+000
      outer loop
         vertex -1.020000e+000 0.000000e+000 0.000000e+000
         vertex -1.020000e+000 1.300000e+000 0.000000e+000
         vertex -4.400000e-001 1.300000e+000 0.000000e+000
      endloop
   endfacet
   facet normal 0.000000e+000 0.000000e+000 -1.000000e+000
      outer loop
         vertex -4.400000e-001 1.300000e+000 0.000000e+000
         vertex -4.400000e-001 6.000000e-002 0.000000e+000
         vertex -1.020000e+000 0.000000e+000 0.000000e+000
      endloop
   endfacet
   facet normal 0.000000e+000 0.000000e+000 -1.000000e+000
      outer loop
         vertex -1.020000e+000 0.000000e+000 0.000000e+000
         vertex -4.400000e-001 6.000000e-002 0.000000e+000
         vertex 4.400000e-001 6.000000e-002 0.000000e+000
      endloop
   endfacet
   facet normal 0.000000e+000 0.000000e+000 -1.000000e+000
      outer loop
         vertex -1.020000e+000 0.000000e+000 0.000000e+000
         vertex 4.400000e-001 6.000000e-002 0.000000e+000
         vertex 1.020000e+000 0.000000e+000 0.000000e+000
      endloop
   endfacet
   facet normal 0.000000e+000 0.000000e+000 -1.000000e+000
      outer loop
         vertex 1.020000e+000 0.000000e+000 0.000000e+000
         vertex 4.400000e-001 6.000000e-002 0.000000e+000
         vertex 1.020000e+000 1.300000e+000 0.000000e+000
      endloop
   endfacet
   facet normal 1.000000e+000 0.000000e+000 0.000000e+000
      outer loop
         vertex 1.020000e+000 1.300000e+000 2.500000e+000
         vertex 1.020000e+000 0.000000e+000 2.500000e+000
         vertex 1.020000e+000 1.300000e+000 2.440000e+000
      endloop
   endfacet
   facet normal 1.000000e+000 0.000000e+000 0.000000e+000
      outer loop
         vertex 1.020000e+000 1.300000e+000 2.440000e+000
         vertex 1.020000e+000 0.000000e+000 2.500000e+000
         vertex 1.020000e+000 0.000000e+000 2.440000e+000
      endloop
   endfacet
   facet normal 0.000000e+000 0.000000e+000 1.000000e+000
      outer loop
         vertex -4.400000e-001 1.300000e+000 2.500000e+000
         vertex -1.020000e+000 1.300000e+000 2.500000e+000
         vertex -4.400000e-001 6.000000e-002 2.500000e+000
      endloop
   endfacet
   facet normal 0.000000e+000 0.000000e+000 1.000000e+000
      outer loop
         vertex -4.400000e-001 6.000000e-002 2.500000e+000
         vertex -1.020000e+000 1.300000e+000 2.500000e+000
         vertex -1.020000e+000 0.000000e+000 2.500000e+000
      endloop
   endfacet
   facet normal 0.000000e+000 0.000000e+000 1.000000e+000
      outer loop
         vertex -4.400000e-001 6.000000e-002 2.500000e+000
         vertex -1.020000e+000 0.000000e+000 2.500000e+000
         vertex 4.400000e-001 6.000000e-002 2.500000e+000
      endloop
   endfacet
   facet normal 0.000000e+000 0.000000e+000 1.000000e+000
      outer loop
         vertex 4.400000e-001 6.000000e-002 2.500000e+000
         vertex -1.020000e+000 0.000000e+000 2.500000e+000
         vertex 1.020000e+000 0.000000e+000 2.500000e+000
      endloop
   endfacet
   facet normal 0.000000e+000 0.000000e+000 1.000000e+000
      outer loop
         vertex 4.400000e-001 6.000000e-002 2.500000e+000
         vertex 1.020000e+000 0.000000e+000 2.500000e+000
         vertex 4.400000e-001 1.300000e+000 2.500000e+000
      endloop
   endfacet
   facet normal 0.000000e+000 0.000000e+000 1.000000e+000
      outer loop
         vertex 4.400000e-001 1.300000e+000 2.500000e+000
         vertex 1.020000e+000 0.000000e+000 2.500000e+000
         vertex 1.020000e+000 1.300000e+000 2.500000e+000
      endloop
   endfacet
   facet normal -1.000000e+000 0.000000e+000 0.000000e+000
      outer loop
         vertex 4.400000e-001 1.300000e+000 5.000000e-001
         vertex 4.400000e-001 1.300000e+000 0.000000e+000
         vertex 4.400000e-001 1.000000e+000 7.800000e-001
      endloop
   endfacet
   facet normal -1.000000e+000 0.000000e+000 0.000000e+000
      outer loop
         vertex 4.400000e-001 1.000000e+000 7.800000e-001
         vertex 4.400000e-001 1.300000e+000 0.000000e+000
         vertex 4.400000e-001 6.000000e-002 0.000000e+000
      endloop
   endfacet
   facet normal -1.000000e+000 0.000000e+000 0.000000e+000
      outer loop
         vertex 4.400000e-001 1.000000e+000 7.800000e-001
         vertex 4.400000e-001 6.000000e-002 0.000000e+000
         vertex 4.400000e-001 1.000000e+000 1.720000e+000
      endloop
   endfacet
   facet normal -1.000000e+000 0.000000e+000 0.000000e+000
      outer loop
         vertex 4.400000e-001 1.000000e+000 1.720000e+000
         vertex 4.400000e-001 6.000000e-002 0.000000e+000
         vertex 4.400000e-001 6.000000e-002 2.500000e+000
      endloop
   endfacet
   facet normal -1.000000e+000 0.000000e+000 0.000000e+000
      outer loop
         vertex 4.400000e-001 1.000000e+000 1.720000e+000
         vertex 4.400000e-001 6.000000e-002 2.500000e+000
         vertex 4.400000e-001 1.300000e+000 2.000000e+000
      endloop
   endfacet
   facet normal -1.000000e+000 0.000000e+000 0.000000e+000
      outer loop
         vertex 4.400000e-001 1.300000e+000 2.000000e+000
         vertex 4.400000e-001 6.000000e-002 2.500000e+000
         vertex 4.400000e-001 1.300000e+000 2.500000e+000
      endloop
   endfacet
   facet normal 0.000000e+000 1.000000e+000 0.000000e+000
      outer loop
         vertex 1.020000e+000 1.300000e+000 6.000000e-002
         vertex 1.020000e+000 1.300000e+000 0.000000e+000
         vertex 5.000000e-001 1.300000e+000 6.000000e-002
      endloop
   endfacet
   facet normal 0.000000e+000 1.000000e+000 0.000000e+000
      outer loop
         vertex 5.000000e-001 1.300000e+000 6.000000e-002
         vertex 1.020000e+000 1.300000e+000 0.000000e+000
         vertex 4.400000e-001 1.300000e+000 0.000000e+000
      endloop
   endfacet
   facet normal 0.000000e+000 1.000000e+000 0.000000e+000
      outer loop
         vertex 5.000000e-001 1.300000e+000 6.000000e-002
         vertex 4.400000e-001 1.300000e+000 0.000000e+000
         vertex 5.000000e-001 1.300000e+000 5.000000e-001
      endloop
   endfacet
   facet normal 0.000000e+000 1.000000e+000 0.000000e+000
      outer loop
         vertex 5.000000e-001 1.300000e+000 5.000000e-001
         vertex 4.400000e-001 1.300000e+000 0.000000e+000
         vertex 4.400000e-001 1.300000e+000 5.000000e-001
      endloop
   endfacet
   facet normal 0.000000e+000 0.000000e+000 1.000000e+000
      outer loop
         vertex 5.000000e-001 1.300000e+000 6.000000e-002
         vertex 5.000000e-001 0.000000e+000 6.000000e-002
         vertex 1.020000e+000 1.300000e+000 6.000000e-002
      endloop
   endfacet
   facet normal 0.000000e+000 0.000000e+000 1.000000e+000
      outer loop
         vertex 1.020000e+000 1.300000e+000 6.000000e-002
         vertex 5.000000e-001 0.000000e+000 6.000000e-002
         vertex 1.020000e+000 0.000000e+000 6.000000e-002
      endloop
   endfacet
   facet normal 0.000000e+000 -1.000000e+000 0.000000e+000
      outer loop
         vertex 5.000000e-001 0.000000e+000 2.440000e+000
         vertex 1.020000e+000 0.000000e+000 2.440000e+000
         vertex 1.020000e+000 0.000000e+000 2.500000e+000
      endloop
   endfacet
   facet normal 0.000000e+000 -1.000000e+000 0.000000e+000
      outer loop
         vertex -5.000000e-001 0.000000e+000 6.000000e-002
         vertex -1.020000e+000 0.000000e+000 6.000000e-002
         vertex -1.020000e+000 0.000000e+000 0.000000e+000
      endloop
   endfacet
   facet normal 0.000000e+000 -1.000000e+000 0.000000e+000
      outer loop
         vertex -1.020000e+000 0.000000e+000 2.500000e+000
         vertex -1.020000e+000 0.000000e+000 2.440000e+000
         vertex -5.000000e-001 0.000000e+000 2.440000e+000
      endloop
   endfacet
   facet normal 0.000000e+000 -1.000000e+000 0.000000e+000
      outer loop
         vertex 1.020000e+000 0.000000e+000 0.000000e+000
         vertex 1.020000e+000 0.000000e+000 6.000000e-002
         vertex 5.000000e-001 0.000000e+000 6.000000e-002
      endloop
   endfacet
   facet normal 0.000000e+000 -1.000000e+000 0.000000e+000
      outer loop
         vertex 1.020000e+000 0.000000e+000 2.500000e+000
         vertex -1.020000e+000 0.000000e+000 2.500000e+000
         vertex 5.000000e-001 0.000000e+000 2.440000e+000
      endloop
   endfacet
   facet normal 0.000000e+000 -1.000000e+000 0.000000e+000
      outer loop
         vertex 5.000000e-001 0.000000e+000 2.440000e+000
         vertex -1.020000e+000 0.000000e+000 2.500000e+000
         vertex -5.000000e-001 0.000000e+000 2.440000e+000
      endloop
   endfacet
   facet normal 0.000000e+000 -1.000000e+000 0.000000e+000
      outer loop
         vertex 5.000000e-001 0.000000e+000 2.440000e+000
         vertex -5.000000e-001 0.000000e+000 2.440000e+000
         vertex 5.000000e-001 0.000000e+000 6.000000e-002
      endloop
   endfacet
   facet normal 0.000000e+000 -1.000000e+000 0.000000e+000
      outer loop
         vertex 5.000000e-001 0.000000e+000 6.000000e-002
         vertex -5.000000e-001 0.000000e+000 2.440000e+000
         vertex -5.000000e-001 0.000000e+000 6.000000e-002
      endloop
   endfacet
   facet normal 0.000000e+000 -1.000000e+000 0.000000e+000
      outer loop
         vertex 5.000000e-001 0.000000e+000 6.000000e-002
         vertex -5.000000e-001 0.000000e+000 6.000000e-002
         vertex 1.020000e+000 0.000000e+000 0.000000e+000
      endloop
   endfacet
   facet normal 0.000000e+000 -1.000000e+000 0.000000e+000
      outer loop
         vertex 1.020000e+000 0.000000e+000 0.000000e+000
         vertex -5.000000e-001 0.000000e+000 6.000000e-002
         vertex -1.020000e+000 0.000000e+000 0.000000e+000
      endloop
   endfacet
   facet normal 0.000000e+000 0.000000e+000 -1.000000e+000
      outer loop
         vertex 1.020000e+000 0.000000e+000 2.440000e+000
         vertex 5.000000e-001 0.000000e+000 2.440000e+000
         vertex 1.020000e+000 1.300000e+000 2.440000e+000
      endloop
   endfacet
   facet normal 0.000000e+000 0.000000e+000 -1.000000e+000
      outer loop
         vertex 1.020000e+000 1.300000e+000 2.440000e+000
         vertex 5.000000e-001 0.000000e+000 2.440000e+000
         vertex 5.000000e-001 1.300000e+000 2.440000e+000
      endloop
   endfacet
   facet normal 0.000000e+000 1.000000e+000 0.000000e+000
      outer loop
         vertex 5.000000e-001 1.300000e+000 2.000000e+000
         vertex 4.400000e-001 1.300000e+000 2.000000e+000
         vertex 5.000000e-001 1.300000e+000 2.440000e+000
      endloop
   endfacet
   facet normal 0.000000e+000 1.000000e+000 0.000000e+000
      outer loop
         vertex 5.000000e-001 1.300000e+000 2.440000e+000
         vertex 4.400000e-001 1.300000e+000 2.000000e+000
         vertex 4.400000e-001 1.300000e+000 2.500000e+000
      endloop
   endfacet
   facet normal 0.000000e+000 1.000000e+000 0.000000e+000
      outer loop
         vertex 5.000000e-001 1.300000e+000 2.440000e+000
         vertex 4.400000e-001 1.300000e+000 2.500000e+000
         vertex 1.020000e+000 1.300000e+000 2.440000e+000
      endloop
   endfacet
   facet normal 0.000000e+000 1.000000e+000 0.000000e+000
      outer loop
         vertex 1.020000e+000 1.300000e+000 2.440000e+000
         vertex 4.400000e-001 1.300000e+000 2.500000e+000
         vertex 1.020000e+000 1.300000e+000 2.500000e+000
      endloop
   endfacet
   facet normal 0.000000e+000 6.823183e-001 -7.310553e-001
      outer loop
         vertex 5.000000e-001 1.000000e+000 1.720000e+000
         vertex 4.400000e-001 1.000000e+000 1.720000e+000
         vertex 5.000000e-001 1.300000e+000 2.000000e+000
      endloop
   endfacet
   facet normal 0.000000e+000 6.823183e-001 -7.310553e-001
      outer loop
         vertex 5.000000e-001 1.300000e+000 2.000000e+000
         vertex 4.400000e-001 1.000000e+000 1.720000e+000
         vertex 4.400000e-001 1.300000e+000 2.000000e+000
      endloop
   endfacet
   facet normal 0.000000e+000 1.000000e+000 0.000000e+000
      outer loop
         vertex 5.000000e-001 1.000000e+000 7.800000e-001
         vertex 4.400000e-001 1.000000e+000 7.800000e-001
         vertex 5.000000e-001 1.000000e+000 1.720000e+000
      endloop
   endfacet
   facet normal 0.000000e+000 1.000000e+000 0.000000e+000
      outer loop
         vertex 5.000000e-001 1.000000e+000 1.720000e+000
         vertex 4.400000e-001 1.000000e+000 7.800000e-001
         vertex 4.400000e-001 1.000000e+000 1.720000e+000
      endloop
   endfacet
   facet normal 0.000000e+000 6.823183e-001 7.310553e-001
      outer loop
         vertex 4.400000e-001 1.000000e+000 7.800000e-001
         vertex 5.000000e-001 1.000000e+000 7.800000e-001
         vertex 4.400000e-001 1.300000e+000 5.000000e-001
      endloop
   endfacet
   facet normal 0.000000e+000 6.823183e-001 7.310553e-001
      outer loop
         vertex 4.400000e-001 1.300000e+000 5.000000e-001
         vertex 5.000000e-001 1.000000e+000 7.800000e-001
         vertex 5.000000e-001 1.300000e+000 5.000000e-001
      endloop
   endfacet
   facet normal 1.000000e+000 0.000000e+000 0.000000e+000
      outer loop
         vertex 5.000000e-001 1.300000e+000 2.000000e+000
         vertex 5.000000e-001 1.300000e+000 2.440000e+000
         vertex 5.000000e-001 1.000000e+000 1.720000e+000
      endloop
   endfacet
   facet normal 1.000000e+000 0.000000e+000 0.000000e+000
      outer loop
         vertex 5.000000e-001 1.000000e+000 1.720000e+000
         vertex 5.000000e-001 1.300000e+000 2.440000e+000
         vertex 5.000000e-001 0.000000e+000 2.440000e+000
      endloop
   endfacet
   facet normal 1.000000e+000 0.000000e+000 0.000000e+000
      outer loop
         vertex 5.000000e-001 1.000000e+000 1.720000e+000
         vertex 5.000000e-001 0.000000e+000 2.440000e+000
         vertex 5.000000e-001 1.000000e+000 7.800000e-001
      endloop
   endfacet
   facet normal 1.000000e+000 0.000000e+000 0.000000e+000
      outer loop
         vertex 5.000000e-001 1.000000e+000 7.800000e-001
         vertex 5.000000e-001 0.000000e+000 2.440000e+000
         vertex 5.000000e-001 0.000000e+000 6.000000e-002
      endloop
   endfacet
   facet normal 1.000000e+000 0.000000e+000 0.000000e+000
      outer loop
         vertex 5.000000e-001 1.000000e+000 7.800000e-001
         vertex 5.000000e-001 0.000000e+000 6.000000e-002
         vertex 5.000000e-001 1.300000e+000 5.000000e-001
      endloop
   endfacet
   facet normal 1.000000e+000 0.000000e+000 0.000000e+000
      outer loop
         vertex 5.000000e-001 1.300000e+000 5.000000e-001
         vertex 5.000000e-001 0.000000e+000 6.000000e-002
         vertex 5.000000e-001 1.300000e+000 6.000000e-002
      endloop
   endfacet
endsolid