solid 5 Girder_Default_sldprt
   facet normal 0.000000e+000 1.000000e+000 0.000000e+000
      outer loop
         vertex -4.400000e-001 1.000000e+000 4.210000e+000
         vertex -4.400000e-001 1.000000e+000 7.900000e-001
         vertex -5.000000e-001 1.000000e+000 4.210000e+000
      endloop
   endfacet
   facet normal 0.000000e+000 1.000000e+000 0.000000e+000
      outer loop
         vertex -5.000000e-001 1.000000e+000 4.210000e+000
         vertex -4.400000e-001 1.000000e+000 7.900000e-001
         vertex -5.000000e-001 1.000000e+000 7.900000e-001
      endloop
   endfacet
   facet normal 0.000000e+000 6.950221e-001 7.189884e-001
      outer loop
         vertex -4.400000e-001 1.000000e+000 7.900000e-001
         vertex -4.400000e-001 1.300000e+000 5.000000e-001
         vertex -5.000000e-001 1.000000e+000 7.900000e-001
      endloop
   endfacet
   facet normal 0.000000e+000 6.950221e-001 7.189884e-001
      outer loop
         vertex -5.000000e-001 1.000000e+000 7.900000e-001
         vertex -4.400000e-001 1.300000e+000 5.000000e-001
         vertex -5.000000e-001 1.300000e+000 5.000000e-001
      endloop
   endfacet
   facet normal 0.000000e+000 6.950221e-001 -7.189884e-001
      outer loop
         vertex -4.400000e-001 1.300000e+000 4.500000e+000
         vertex -4.400000e-001 1.000000e+000 4.210000e+000
         vertex -5.000000e-001 1.300000e+000 4.500000e+000
      endloop
   endfacet
   facet normal 0.000000e+000 6.950221e-001 -7.189884e-001
      outer loop
         vertex -5.000000e-001 1.300000e+000 4.500000e+000
         vertex -4.400000e-001 1.000000e+000 4.210000e+000
         vertex -5.000000e-001 1.000000e+000 4.210000e+000
      endloop
   endfacet
   facet normal -1.000000e+000 0.000000e+000 0.000000e+000
      outer loop
         vertex -1.020000e+000 1.300000e+000 6.000000e-002
         vertex -1.020000e+000 1.300000e+000 8.537025e-018
         vertex -1.020000e+000 0.000000e+000 6.000000e-002
      endloop
   endfacet
   facet normal -1.000000e+000 0.000000e+000 0.000000e+000
      outer loop
         vertex -1.020000e+000 0.000000e+000 6.000000e-002
         vertex -1.020000e+000 1.300000e+000 8.537025e-018
         vertex -1.020000e+000 0.000000e+000 0.000000e+000
      endloop
   endfacet
   facet normal 0.000000e+000 1.000000e+000 0.000000e+000
      outer loop
         vertex -5.000000e-001 1.300000e+000 5.000000e-001
         vertex -4.400000e-001 1.300000e+000 5.000000e-001
         vertex -5.000000e-001 1.300000e+000 6.000000e-002
      endloop
   endfacet
   facet normal 0.000000e+000 1.000000e+000 0.000000e+000
      outer loop
         vertex -5.000000e-001 1.300000e+000 6.000000e-002
         vertex -4.400000e-001 1.300000e+000 5.000000e-001
         vertex -4.400000e-001 1.300000e+000 0.000000e+000
      endloop
   endfacet
   facet normal 0.000000e+000 1.000000e+000 0.000000e+000
      outer loop
         vertex -5.000000e-001 1.300000e+000 6.000000e-002
         vertex -4.400000e-001 1.300000e+000 0.000000e+000
         vertex -1.020000e+000 1.300000e+000 6.000000e-002
      endloop
   endfacet
   facet normal 0.000000e+000 1.000000e+000 0.000000e+000
      outer loop
         vertex -1.020000e+000 1.300000e+000 6.000000e-002
         vertex -4.400000e-001 1.300000e+000 0.000000e+000
         vertex -1.020000e+000 1.300000e+000 8.537025e-018
      endloop
   endfacet
   facet normal -1.000000e+000 0.000000e+000 0.000000e+000
      outer loop
         vertex -1.020000e+000 0.000000e+000 4.940000e+000
         vertex -1.020000e+000 0.000000e+000 5.000000e+000
         vertex -1.020000e+000 1.300000e+000 4.940000e+000
      endloop
   endfacet
   facet normal -1.000000e+000 0.000000e+000 0.000000e+000
      outer loop
         vertex -1.020000e+000 1.300000e+000 4.940000e+000
         vertex -1.020000e+000 0.000000e+000 5.000000e+000
         vertex -1.020000e+000 1.300000e+000 5.000000e+000
      endloop
   endfacet
   facet normal 0.000000e+000 1.000000e+000 0.000000e+000
      outer loop
         vertex -1.020000e+000 1.300000e+000 4.940000e+000
         vertex -1.020000e+000 1.300000e+000 5.000000e+000
         vertex -5.000000e-001 1.300000e+000 4.940000e+000
      endloop
   endfacet
   facet normal 0.000000e+000 1.000000e+000 0.000000e+000
      outer loop
         vertex -5.000000e-001 1.300000e+000 4.940000e+000
         vertex -1.020000e+000 1.300000e+000 5.000000e+000
         vertex -4.400000e-001 1.300000e+000 5.000000e+000
      endloop
   endfacet
   facet normal 0.000000e+000 1.000000e+000 0.000000e+000
      outer loop
         vertex -5.000000e-001 1.300000e+000 4.940000e+000
         vertex -4.400000e-001 1.300000e+000 5.000000e+000
         vertex -5.000000e-001 1.300000e+000 4.500000e+000
      endloop
   endfacet
   facet normal 0.000000e+000 1.000000e+000 0.000000e+000
      outer loop
         vertex -5.000000e-001 1.300000e+000 4.500000e+000
         vertex -4.400000e-001 1.300000e+000 5.000000e+000
         vertex -4.400000e-001 1.300000e+000 4.500000e+000
      endloop
   endfacet
   facet normal 1.000000e+000 0.000000e+000 0.000000e+000
      outer loop
         vertex -4.400000e-001 1.300000e+000 4.500000e+000
         vertex -4.400000e-001 1.300000e+000 5.000000e+000
         vertex -4.400000e-001 1.000000e+000 4.210000e+000
      endloop
   endfacet
   facet normal 1.000000e+000 0.000000e+000 0.000000e+000
      outer loop
         vertex -4.400000e-001 1.000000e+000 4.210000e+000
         vertex -4.400000e-001 1.300000e+000 5.000000e+000
         vertex -4.400000e-001 6.000000e-002 5.000000e+000
      endloop
   endfacet
   facet normal 1.000000e+000 0.000000e+000 0.000000e+000
      outer loop
         vertex -4.400000e-001 1.000000e+000 4.210000e+000
         vertex -4.400000e-001 6.000000e-002 5.000000e+000
         vertex -4.400000e-001 1.000000e+000 7.900000e-001
      endloop
   endfacet
   facet normal 1.000000e+000 0.000000e+000 0.000000e+000
      outer loop
         vertex -4.400000e-001 1.000000e+000 7.900000e-001
         vertex -4.400000e-001 6.000000e-002 5.000000e+000
         vertex -4.400000e-001 6.000000e-002 0.000000e+000
      endloop
   endfacet
   facet normal 1.000000e+000 0.000000e+000 0.000000e+000
      outer loop
         vertex -4.400000e-001 1.000000e+000 7.900000e-001
         vertex -4.400000e-001 6.000000e-002 0.000000e+000
         vertex -4.400000e-001 1.300000e+000 5.000000e-001
      endloop
   endfacet
   facet normal 1.000000e+000 0.000000e+000 0.000000e+000
      outer loop
         vertex -4.400000e-001 1.300000e+000 5.000000e-001
         vertex -4.400000e-001 6.000000e-002 0.000000e+000
         vertex -4.400000e-001 1.300000e+000 0.000000e+000
      endloop
   endfacet
   facet normal 0.000000e+000 1.000000e+000 0.000000e+000
      outer loop
         vertex 4.400000e-001 6.000000e-002 0.000000e+000
         vertex -4.400000e-001 6.000000e-002 0.000000e+000
         vertex 4.400000e-001 6.000000e-002 5.000000e+000
      endloop
   endfacet
   facet normal 0.000000e+000 1.000000e+000 0.000000e+000
      outer loop
         vertex 4.400000e-001 6.000000e-002 5.000000e+000
         vertex -4.400000e-001 6.000000e-002 0.000000e+000
         vertex -4.400000e-001 6.000000e-002 5.000000e+000
      endloop
   endfacet
   facet normal 1.000000e+000 0.000000e+000 0.000000e+000
      outer loop
         vertex 1.020000e+000 0.000000e+000 0.000000e+000
         vertex 1.020000e+000 1.300000e+000 0.000000e+000
         vertex 1.020000e+000 0.000000e+000 6.000000e-002
      endloop
   endfacet
   facet normal 1.000000e+000 0.000000e+000 0.000000e+000
      outer loop
         vertex 1.020000e+000 0.000000e+000 6.000000e-002
         vertex 1.020000e+000 1.300000e+000 0.000000e+000
         vertex 1.020000e+000 1.300000e+000 6.000000e-002
      endloop
   endfacet
   facet normal 0.000000e+000 0.000000e+000 1.000000e+000
      outer loop
         vertex -5.000000e-001 -1.707405e-017 6.000000e-002
         vertex -5.000000e-001 1.300000e+000 6.000000e-002
         vertex -1.020000e+000 0.000000e+000 6.000000e-002
      endloop
   endfacet
   facet normal 0.000000e+000 0.000000e+000 1.000000e+000
      outer loop
         vertex -1.020000e+000 0.000000e+000 6.000000e-002
         vertex -5.000000e-001 1.300000e+000 6.000000e-002
         vertex -1.020000e+000 1.300000e+000 6.000000e-002
      endloop
   endfacet
   facet normal -1.000000e+000 0.000000e+000 0.000000e+000
      outer loop
         vertex -5.000000e-001 1.300000e+000 5.000000e-001
         vertex -5.000000e-001 1.300000e+000 6.000000e-002
         vertex -5.000000e-001 1.000000e+000 7.900000e-001
      endloop
   endfacet
   facet normal -1.000000e+000 0.000000e+000 0.000000e+000
      outer loop
         vertex -5.000000e-001 1.000000e+000 7.900000e-001
         vertex -5.000000e-001 1.300000e+000 6.000000e-002
         vertex -5.000000e-001 -1.707405e-017 6.000000e-002
      endloop
   endfacet
   facet normal -1.000000e+000 0.000000e+000 0.000000e+000
      outer loop
         vertex -5.000000e-001 1.000000e+000 7.900000e-001
         vertex -5.000000e-001 -1.707405e-017 6.000000e-002
         vertex -5.000000e-001 1.000000e+000 4.210000e+000
      endloop
   endfacet
   facet normal -1.000000e+000 0.000000e+000 0.000000e+000
      outer loop
         vertex -5.000000e-001 1.000000e+000 4.210000e+000
         vertex -5.000000e-001 -1.707405e-017 6.000000e-002
         vertex -5.000000e-001 0.000000e+000 4.940000e+000
      endloop
   endfacet
   facet normal -1.000000e+000 0.000000e+000 0.000000e+000
      outer loop
         vertex -5.000000e-001 1.000000e+000 4.210000e+000
         vertex -5.000000e-001 0.000000e+000 4.940000e+000
         vertex -5.000000e-001 1.300000e+000 4.500000e+000
      endloop
   endfacet
   facet normal -1.000000e+000 0.000000e+000 0.000000e+000
      outer loop
         vertex -5.000000e-001 1.300000e+000 4.500000e+000
         vertex -5.000000e-001 0.000000e+000 4.940000e+000
         vertex -5.000000e-001 1.300000e+000 4.940000e+000
      endloop
   endfacet
   facet normal 0.000000e+000 0.000000e+000 -1.000000e+000
      outer loop
         vertex -1.020000e+000 1.300000e+000 4.940000e+000
         vertex -5.000000e-001 1.300000e+000 4.940000e+000
         vertex -1.020000e+000 0.000000e+000 4.940000e+000
      endloop
   endfacet
   facet normal 0.000000e+000 0.000000e+000 -1.000000e+000
      outer loop
         vertex -1.020000e+000 0.000000e+000 4.940000e+000
         vertex -5.000000e-001 1.300000e+000 4.940000e+000
         vertex -5.000000e-001 0.000000e+000 4.940000e+000
      endloop
   endfacet
   facet normal 0.000000e+000 0.000000e+000 -1.000000e+000
      outer loop
         vertex 4.400000e-001 6.000000e-002 0.000000e+000
         vertex 4.400000e-001 1.300000e+000 0.000000e+000
         vertex 1.020000e+000 1.300000e+000 0.000000e+000
      endloop
   endfacet
   facet normal 0.000000e+000 0.000000e+000 -1.000000e+000
      outer loop
         vertex -1.020000e+000 0.000000e+000 0.000000e+000
         vertex -1.020000e+000 1.300000e+000 0.000000e+000
         vertex -4.400000e-001 1.300000e+000 0.000000e+000
      endloop
   endfacet
   facet normal 0.000000e+000 0.000000e+000 -1.000000e+000
      outer loop
         vertex -4.400000e-001 1.300000e+000 0.000000e+000
         vertex -4.400000e-001 6.000000e-002 0.000000e+000
         vertex -1.020000e+000 0.000000e+000 0.000000e+000
      endloop
   endfacet
   facet normal 0.000000e+000 0.000000e+000 -1.000000e+000
      outer loop
         vertex -1.020000e+000 0.000000e+000 0.000000e+000
         vertex -4.400000e-001 6.000000e-002 0.000000e+000
         vertex 4.400000e-001 6.000000e-002 0.000000e+000
      endloop
   endfacet
   facet normal 0.000000e+000 0.000000e+000 -1.000000e+000
      outer loop
         vertex -1.020000e+000 0.000000e+000 0.000000e+000
         vertex 4.400000e-001 6.000000e-002 0.000000e+000
         vertex 1.020000e+000 0.000000e+000 0.000000e+000
      endloop
   endfacet
   facet normal 0.000000e+000 0.000000e+000 -1.000000e+000
      outer loop
         vertex 1.020000e+000 0.000000e+000 0.000000e+000
         vertex 4.400000e-001 6.000000e-002 0.000000e+000
         vertex 1.020000e+000 1.300000e+000 0.000000e+000
      endloop
   endfacet
   facet normal 1.000000e+000 0.000000e+000 0.000000e+000
      outer loop
         vertex 1.020000e+000 1.300000e+000 5.000000e+000
         vertex 1.020000e+000 0.000000e+000 5.000000e+000
         vertex 1.020000e+000 1.300000e+000 4.940000e+000
      endloop
   endfacet
   facet normal 1.000000e+000 0.000000e+000 0.000000e+000
      outer loop
         vertex 1.020000e+000 1.300000e+000 4.940000e+000
         vertex 1.020000e+000 0.000000e+000 5.000000e+000
         vertex 1.020000e+000 0.000000e+000 4.940000e+000
      endloop
   endfacet
   facet normal 0.000000e+000 0.000000e+000 1.000000e+000
      outer loop
         vertex -4.400000e-001 1.300000e+000 5.000000e+000
         vertex -1.020000e+000 1.300000e+000 5.000000e+000
         vertex -4.400000e-001 6.000000e-002 5.000000e+000
      endloop
   endfacet
   facet normal 0.000000e+000 0.000000e+000 1.000000e+000
      outer loop
         vertex -4.400000e-001 6.000000e-002 5.000000e+000
         vertex -1.020000e+000 1.300000e+000 5.000000e+000
         vertex -1.020000e+000 0.000000e+000 5.000000e+000
      endloop
   endfacet
   facet normal 0.000000e+000 0.000000e+000 1.000000e+000
      outer loop
         vertex -4.400000e-001 6.000000e-002 5.000000e+000
         vertex -1.020000e+000 0.000000e+000 5.000000e+000
         vertex 4.400000e-001 6.000000e-002 5.000000e+000
      endloop
   endfacet
   facet normal 0.000000e+000 0.000000e+000 1.000000e+000
      outer loop
         vertex 4.400000e-001 6.000000e-002 5.000000e+000
         vertex -1.020000e+000 0.000000e+000 5.000000e+000
         vertex 1.020000e+000 0.000000e+000 5.000000e+000
      endloop
   endfacet
   facet normal 0.000000e+000 0.000000e+000 1.000000e+000
      outer loop
         vertex 4.400000e-001 6.000000e-002 5.000000e+000
         vertex 1.020000e+000 0.000000e+000 5.000000e+000
         vertex 4.400000e-001 1.300000e+000 5.000000e+000
      endloop
   endfacet
   facet normal 0.000000e+000 0.000000e+000 1.000000e+000
      outer loop
         vertex 4.400000e-001 1.300000e+000 5.000000e+000
         vertex 1.020000e+000 0.000000e+000 5.000000e+000
         vertex 1.020000e+000 1.300000e+000 5.000000e+000
      endloop
   endfacet
   facet normal -1.000000e+000 0.000000e+000 0.000000e+000
      outer loop
         vertex 4.400000e-001 1.300000e+000 5.000000e-001
         vertex 4.400000e-001 1.300000e+000 0.000000e+000
         vertex 4.400000e-001 1.000000e+000 7.900000e-001
      endloop
   endfacet
   facet normal -1.000000e+000 0.000000e+000 0.000000e+000
      outer loop
         vertex 4.400000e-001 1.000000e+000 7.900000e-001
         vertex 4.400000e-001 1.300000e+000 0.000000e+000
         vertex 4.400000e-001 6.000000e-002 0.000000e+000
      endloop
   endfacet
   facet normal -1.000000e+000 0.000000e+000 0.000000e+000
      outer loop
         vertex 4.400000e-001 1.000000e+000 7.900000e-001
         vertex 4.400000e-001 6.000000e-002 0.000000e+000
         vertex 4.400000e-001 1.000000e+000 4.210000e+000
      endloop
   endfacet
   facet normal -1.000000e+000 0.000000e+000 0.000000e+000
      outer loop
         vertex 4.400000e-001 1.000000e+000 4.210000e+000
         vertex 4.400000e-001 6.000000e-002 0.000000e+000
         vertex 4.400000e-001 6.000000e-002 5.000000e+000
      endloop
   endfacet
   facet normal -1.000000e+000 0.000000e+000 0.000000e+000
      outer loop
         vertex 4.400000e-001 1.000000e+000 4.210000e+000
         vertex 4.400000e-001 6.000000e-002 5.000000e+000
         vertex 4.400000e-001 1.300000e+000 4.500000e+000
      endloop
   endfacet
   facet normal -1.000000e+000 0.000000e+000 0.000000e+000
      outer loop
         vertex 4.400000e-001 1.300000e+000 4.500000e+000
         vertex 4.400000e-001 6.000000e-002 5.000000e+000
         vertex 4.400000e-001 1.300000e+000 5.000000e+000
      endloop
   endfacet
   facet normal 0.000000e+000 1.000000e+000 0.000000e+000
      outer loop
         vertex 1.020000e+000 1.300000e+000 6.000000e-002
         vertex 1.020000e+000 1.300000e+000 0.000000e+000
         vertex 5.000000e-001 1.300000e+000 6.000000e-002
      endloop
   endfacet
   facet normal 0.000000e+000 1.000000e+000 0.000000e+000
      outer loop
         vertex 5.000000e-001 1.300000e+000 6.000000e-002
         vertex 1.020000e+000 1.300000e+000 0.000000e+000
         vertex 4.400000e-001 1.300000e+000 0.000000e+000
      endloop
   endfacet
   facet normal 0.000000e+000 1.000000e+000 0.000000e+000
      outer loop
         vertex 5.000000e-001 1.300000e+000 6.000000e-002
         vertex 4.400000e-001 1.300000e+000 0.000000e+000
         vertex 5.000000e-001 1.300000e+000 5.000000e-001
      endloop
   endfacet
   facet normal 0.000000e+000 1.000000e+000 0.000000e+000
      outer loop
         vertex 5.000000e-001 1.300000e+000 5.000000e-001
         vertex 4.400000e-001 1.300000e+000 0.000000e+000
         vertex 4.400000e-001 1.300000e+000 5.000000e-001
      endloop
   endfacet
   facet normal 0.000000e+000 0.000000e+000 1.000000e+000
      outer loop
         vertex 5.000000e-001 1.300000e+000 6.000000e-002
         vertex 5.000000e-001 -1.707405e-017 6.000000e-002
         vertex 1.020000e+000 1.300000e+000 6.000000e-002
      endloop
   endfacet
   facet normal 0.000000e+000 0.000000e+000 1.000000e+000
      outer loop
         vertex 1.020000e+000 1.300000e+000 6.000000e-002
         vertex 5.000000e-001 -1.707405e-017 6.000000e-002
         vertex 1.020000e+000 0.000000e+000 6.000000e-002
      endloop
   endfacet
   facet normal 0.000000e+000 -1.000000e+000 0.000000e+000
      outer loop
         vertex 5.000000e-001 0.000000e+000 4.940000e+000
         vertex 1.020000e+000 0.000000e+000 4.940000e+000
         vertex 1.020000e+000 0.000000e+000 5.000000e+000
      endloop
   endfacet
   facet normal 0.000000e+000 -1.000000e+000 0.000000e+000
      outer loop
         vertex -5.000000e-001 0.000000e+000 6.000000e-002
         vertex -1.020000e+000 0.000000e+000 6.000000e-002
         vertex -1.020000e+000 0.000000e+000 0.000000e+000
      endloop
   endfacet
   facet normal 0.000000e+000 -1.000000e+000 0.000000e+000
      outer loop
         vertex -1.020000e+000 0.000000e+000 5.000000e+000
         vertex -1.020000e+000 0.000000e+000 4.940000e+000
         vertex -5.000000e-001 0.000000e+000 4.940000e+000
      endloop
   endfacet
   facet normal 0.000000e+000 -1.000000e+000 0.000000e+000
      outer loop
         vertex 1.020000e+000 0.000000e+000 0.000000e+000
         vertex 1.020000e+000 0.000000e+000 6.000000e-002
         vertex 5.000000e-001 0.000000e+000 6.000000e-002
      endloop
   endfacet
   facet normal 0.000000e+000 -1.000000e+000 0.000000e+000
      outer loop
         vertex 1.020000e+000 0.000000e+000 5.000000e+000
         vertex -1.020000e+000 0.000000e+000 5.000000e+000
         vertex 5.000000e-001 0.000000e+000 4.940000e+000
      endloop
   endfacet
   facet normal 0.000000e+000 -1.000000e+000 0.000000e+000
      outer loop
         vertex 5.000000e-001 0.000000e+000 4.940000e+000
         vertex -1.020000e+000 0.000000e+000 5.000000e+000
         vertex -5.000000e-001 0.000000e+000 4.940000e+000
      endloop
   endfacet
   facet normal 0.000000e+000 -1.000000e+000 0.000000e+000
      outer loop
         vertex 5.000000e-001 0.000000e+000 4.940000e+000
         vertex -5.000000e-001 0.000000e+000 4.940000e+000
         vertex 5.000000e-001 0.000000e+000 6.000000e-002
      endloop
   endfacet
   facet normal 0.000000e+000 -1.000000e+000 0.000000e+000
      outer loop
         vertex 5.000000e-001 0.000000e+000 6.000000e-002
         vertex -5.000000e-001 0.000000e+000 4.940000e+000
         vertex -5.000000e-001 0.000000e+000 6.000000e-002
      endloop
   endfacet
   facet normal 0.000000e+000 -1.000000e+000 0.000000e+000
      outer loop
         vertex 5.000000e-001 0.000000e+000 6.000000e-002
         vertex -5.000000e-001 0.000000e+000 6.000000e-002
         vertex 1.020000e+000 0.000000e+000 0.000000e+000
      endloop
   endfacet
   facet normal 0.000000e+000 -1.000000e+000 0.000000e+000
      outer loop
         vertex 1.020000e+000 0.000000e+000 0.000000e+000
         vertex -5.000000e-001 0.000000e+000 6.000000e-002
         vertex -1.020000e+000 0.000000e+000 0.000000e+000
      endloop
   endfacet
   facet normal 0.000000e+000 0.000000e+000 -1.000000e+000
      outer loop
         vertex 1.020000e+000 0.000000e+000 4.940000e+000
         vertex 5.000000e-001 0.000000e+000 4.940000e+000
         vertex 1.020000e+000 1.300000e+000 4.940000e+000
      endloop
   endfacet
   facet normal 0.000000e+000 0.000000e+000 -1.000000e+000
      outer loop
         vertex 1.020000e+000 1.300000e+000 4.940000e+000
         vertex 5.000000e-001 0.000000e+000 4.940000e+000
         vertex 5.000000e-001 1.300000e+000 4.940000e+000
      endloop
   endfacet
   facet normal 0.000000e+000 1.000000e+000 0.000000e+000
      outer loop
         vertex 5.000000e-001 1.300000e+000 4.500000e+000
         vertex 4.400000e-001 1.300000e+000 4.500000e+000
         vertex 5.000000e-001 1.300000e+000 4.940000e+000
      endloop
   endfacet
   facet normal 0.000000e+000 1.000000e+000 0.000000e+000
      outer loop
         vertex 5.000000e-001 1.300000e+000 4.940000e+000
         vertex 4.400000e-001 1.300000e+000 4.500000e+000
         vertex 4.400000e-001 1.300000e+000 5.000000e+000
      endloop
   endfacet
   facet normal 0.000000e+000 1.000000e+000 0.000000e+000
      outer loop
         vertex 5.000000e-001 1.300000e+000 4.940000e+000
         vertex 4.400000e-001 1.300000e+000 5.000000e+000
         vertex 1.020000e+000 1.300000e+000 4.940000e+000
      endloop
   endfacet
   facet normal 0.000000e+000 1.000000e+000 0.000000e+000
      outer loop
         vertex 1.020000e+000 1.300000e+000 4.940000e+000
         vertex 4.400000e-001 1.300000e+000 5.000000e+000
         vertex 1.020000e+000 1.300000e+000 5.000000e+000
      endloop
   endfacet
   facet normal 0.000000e+000 6.950221e-001 -7.189884e-001
      outer loop
         vertex 5.000000e-001 1.000000e+000 4.210000e+000
         vertex 4.400000e-001 1.000000e+000 4.210000e+000
         vertex 5.000000e-001 1.300000e+000 4.500000e+000
      endloop
   endfacet
   facet normal 0.000000e+000 6.950221e-001 -7.189884e-001
      outer loop
         vertex 5.000000e-001 1.300000e+000 4.500000e+000
         vertex 4.400000e-001 1.000000e+000 4.210000e+000
         vertex 4.400000e-001 1.300000e+000 4.500000e+000
      endloop
   endfacet
   facet normal 0.000000e+000 1.000000e+000 0.000000e+000
      outer loop
         vertex 5.000000e-001 1.000000e+000 7.900000e-001
         vertex 4.400000e-001 1.000000e+000 7.900000e-001
         vertex 5.000000e-001 1.000000e+000 4.210000e+000
      endloop
   endfacet
   facet normal 0.000000e+000 1.000000e+000 0.000000e+000
      outer loop
         vertex 5.000000e-001 1.000000e+000 4.210000e+000
         vertex 4.400000e-001 1.000000e+000 7.900000e-001
         vertex 4.400000e-001 1.000000e+000 4.210000e+000
      endloop
   endfacet
   facet normal 0.000000e+000 6.950221e-001 7.189884e-001
      outer loop
         vertex 4.400000e-001 1.000000e+000 7.900000e-001
         vertex 5.000000e-001 1.000000e+000 7.900000e-001
         vertex 4.400000e-001 1.300000e+000 5.000000e-001
      endloop
   endfacet
   facet normal 0.000000e+000 6.950221e-001 7.189884e-001
      outer loop
         vertex 4.400000e-001 1.300000e+000 5.000000e-001
         vertex 5.000000e-001 1.000000e+000 7.900000e-001
         vertex 5.000000e-001 1.300000e+000 5.000000e-001
      endloop
   endfacet
   facet normal 1.000000e+000 0.000000e+000 0.000000e+000
      outer loop
         vertex 5.000000e-001 1.300000e+000 4.500000e+000
         vertex 5.000000e-001 1.300000e+000 4.940000e+000
         vertex 5.000000e-001 1.000000e+000 4.210000e+000
      endloop
   endfacet
   facet normal 1.000000e+000 0.000000e+000 0.000000e+000
      outer loop
         vertex 5.000000e-001 1.000000e+000 4.210000e+000
         vertex 5.000000e-001 1.300000e+000 4.940000e+000
         vertex 5.000000e-001 0.000000e+000 4.940000e+000
      endloop
   endfacet
   facet normal 1.000000e+000 0.000000e+000 0.000000e+000
      outer loop
         vertex 5.000000e-001 1.000000e+000 4.210000e+000
         vertex 5.000000e-001 0.000000e+000 4.940000e+000
         vertex 5.000000e-001 1.000000e+000 7.900000e-001
      endloop
   endfacet
   facet normal 1.000000e+000 0.000000e+000 0.000000e+000
      outer loop
         vertex 5.000000e-001 1.000000e+000 7.900000e-001
         vertex 5.000000e-001 0.000000e+000 4.940000e+000
         vertex 5.000000e-001 -1.707405e-017 6.000000e-002
      endloop
   endfacet
   facet normal 1.000000e+000 0.000000e+000 0.000000e+000
      outer loop
         vertex 5.000000e-001 1.000000e+000 7.900000e-001
         vertex 5.000000e-001 -1.707405e-017 6.000000e-002
         vertex 5.000000e-001 1.300000e+000 5.000000e-001
      endloop
   endfacet
   facet normal 1.000000e+000 0.000000e+000 0.000000e+000
      outer loop
         vertex 5.000000e-001 1.300000e+000 5.000000e-001
         vertex 5.000000e-001 -1.707405e-017 6.000000e-002
         vertex 5.000000e-001 1.300000e+000 6.000000e-002
      endloop
   endfacet
endsolid