solid AX Gripper Side_Default_sldprt
   facet normal 0.000000e+000 0.000000e+000 1.000000e+000
      outer loop
         vertex 1.609090e+001 -1.549400e+001 8.636000e+000
         vertex 1.769110e+001 -1.549400e+001 8.636000e+000
         vertex 1.609090e+001 1.549400e+001 8.636000e+000
      endloop
   endfacet
   facet normal 0.000000e+000 0.000000e+000 1.000000e+000
      outer loop
         vertex 1.609090e+001 1.549400e+001 8.636000e+000
         vertex 1.769110e+001 -1.549400e+001 8.636000e+000
         vertex 1.769110e+001 1.549400e+001 8.636000e+000
      endloop
   endfacet
   facet normal 0.000000e+000 0.000000e+000 1.000000e+000
      outer loop
         vertex -1.769110e+001 1.549400e+001 8.636000e+000
         vertex -1.769110e+001 -1.549400e+001 8.636000e+000
         vertex -1.609090e+001 1.549400e+001 8.636000e+000
      endloop
   endfacet
   facet normal 0.000000e+000 0.000000e+000 1.000000e+000
      outer loop
         vertex -1.609090e+001 1.549400e+001 8.636000e+000
         vertex -1.769110e+001 -1.549400e+001 8.636000e+000
         vertex -1.609090e+001 -1.549400e+001 8.636000e+000
      endloop
   endfacet
   facet normal -1.000000e+000 0.000000e+000 0.000000e+000
      outer loop
         vertex 1.609090e+001 1.549400e+001 8.636000e+000
         vertex 1.609090e+001 1.549400e+001 1.600200e+000
         vertex 1.609090e+001 -1.549400e+001 8.636000e+000
      endloop
   endfacet
   facet normal -1.000000e+000 0.000000e+000 0.000000e+000
      outer loop
         vertex 1.609090e+001 -1.549400e+001 8.636000e+000
         vertex 1.609090e+001 1.549400e+001 1.600200e+000
         vertex 1.609090e+001 -1.549400e+001 1.600200e+000
      endloop
   endfacet
   facet normal 1.000000e+000 0.000000e+000 0.000000e+000
      outer loop
         vertex -1.609090e+001 -1.549400e+001 8.636000e+000
         vertex -1.609090e+001 -1.549400e+001 1.600200e+000
         vertex -1.609090e+001 1.549400e+001 8.636000e+000
      endloop
   endfacet
   facet normal 1.000000e+000 0.000000e+000 0.000000e+000
      outer loop
         vertex -1.609090e+001 1.549400e+001 8.636000e+000
         vertex -1.609090e+001 -1.549400e+001 1.600200e+000
         vertex -1.609090e+001 1.549400e+001 1.600200e+000
      endloop
   endfacet
   facet normal 0.000000e+000 -1.000000e+000 0.000000e+000
      outer loop
         vertex -1.609090e+001 -1.549400e+001 8.636000e+000
         vertex -1.769110e+001 -1.549400e+001 8.636000e+000
         vertex -1.609090e+001 -1.549400e+001 1.600200e+000
      endloop
   endfacet
   facet normal 0.000000e+000 -1.000000e+000 0.000000e+000
      outer loop
         vertex -1.609090e+001 -1.549400e+001 1.600200e+000
         vertex -1.769110e+001 -1.549400e+001 8.636000e+000
         vertex -1.769110e+001 -1.549400e+001 -1.084202e-016
      endloop
   endfacet
   facet normal 0.000000e+000 -1.000000e+000 0.000000e+000
      outer loop
         vertex -1.609090e+001 -1.549400e+001 1.600200e+000
         vertex -1.769110e+001 -1.549400e+001 -1.084202e-016
         vertex 1.609090e+001 -1.549400e+001 1.600200e+000
      endloop
   endfacet
   facet normal 0.000000e+000 -1.000000e+000 0.000000e+000
      outer loop
         vertex 1.609090e+001 -1.549400e+001 1.600200e+000
         vertex -1.769110e+001 -1.549400e+001 -1.084202e-016
         vertex 1.769110e+001 -1.549400e+001 -1.084202e-016
      endloop
   endfacet
   facet normal 0.000000e+000 -1.000000e+000 0.000000e+000
      outer loop
         vertex 1.609090e+001 -1.549400e+001 1.600200e+000
         vertex 1.769110e+001 -1.549400e+001 -1.084202e-016
         vertex 1.609090e+001 -1.549400e+001 8.636000e+000
      endloop
   endfacet
   facet normal 0.000000e+000 -1.000000e+000 0.000000e+000
      outer loop
         vertex 1.609090e+001 -1.549400e+001 8.636000e+000
         vertex 1.769110e+001 -1.549400e+001 -1.084202e-016
         vertex 1.769110e+001 -1.549400e+001 8.636000e+000
      endloop
   endfacet
   facet normal 1.000000e+000 0.000000e+000 0.000000e+000
      outer loop
         vertex 1.769110e+001 -1.549400e+001 8.636000e+000
         vertex 1.769110e+001 -1.549400e+001 -1.084202e-016
         vertex 1.769110e+001 1.549400e+001 8.636000e+000
      endloop
   endfacet
   facet normal 1.000000e+000 0.000000e+000 0.000000e+000
      outer loop
         vertex 1.769110e+001 1.549400e+001 8.636000e+000
         vertex 1.769110e+001 -1.549400e+001 -1.084202e-016
         vertex 1.769110e+001 1.549400e+001 -2.168404e-016
      endloop
   endfacet
   facet normal 0.000000e+000 1.000000e+000 0.000000e+000
      outer loop
         vertex 1.609090e+001 1.549400e+001 8.636000e+000
         vertex 1.769110e+001 1.549400e+001 8.636000e+000
         vertex 1.609090e+001 1.549400e+001 1.600200e+000
      endloop
   endfacet
   facet normal 0.000000e+000 1.000000e+000 0.000000e+000
      outer loop
         vertex 1.609090e+001 1.549400e+001 1.600200e+000
         vertex 1.769110e+001 1.549400e+001 8.636000e+000
         vertex 1.769110e+001 1.549400e+001 -2.168404e-016
      endloop
   endfacet
   facet normal 0.000000e+000 1.000000e+000 0.000000e+000
      outer loop
         vertex 1.609090e+001 1.549400e+001 1.600200e+000
         vertex 1.769110e+001 1.549400e+001 -2.168404e-016
         vertex -1.609090e+001 1.549400e+001 1.600200e+000
      endloop
   endfacet
   facet normal 0.000000e+000 1.000000e+000 0.000000e+000
      outer loop
         vertex -1.609090e+001 1.549400e+001 1.600200e+000
         vertex 1.769110e+001 1.549400e+001 -2.168404e-016
         vertex -1.769110e+001 1.549400e+001 -1.084202e-016
      endloop
   endfacet
   facet normal 0.000000e+000 1.000000e+000 0.000000e+000
      outer loop
         vertex -1.609090e+001 1.549400e+001 1.600200e+000
         vertex -1.769110e+001 1.549400e+001 -1.084202e-016
         vertex -1.609090e+001 1.549400e+001 8.636000e+000
      endloop
   endfacet
   facet normal 0.000000e+000 1.000000e+000 0.000000e+000
      outer loop
         vertex -1.609090e+001 1.549400e+001 8.636000e+000
         vertex -1.769110e+001 1.549400e+001 -1.084202e-016
         vertex -1.769110e+001 1.549400e+001 8.636000e+000
      endloop
   endfacet
   facet normal -1.000000e+000 0.000000e+000 0.000000e+000
      outer loop
         vertex -1.769110e+001 1.549400e+001 8.636000e+000
         vertex -1.769110e+001 1.549400e+001 0.000000e+000
         vertex -1.769110e+001 -1.549400e+001 8.636000e+000
      endloop
   endfacet
   facet normal -1.000000e+000 0.000000e+000 0.000000e+000
      outer loop
         vertex -1.769110e+001 -1.549400e+001 8.636000e+000
         vertex -1.769110e+001 1.549400e+001 0.000000e+000
         vertex -1.769110e+001 -1.549400e+001 0.000000e+000
      endloop
   endfacet
   facet normal 0.000000e+000 0.000000e+000 1.000000e+000
      outer loop
         vertex 1.920055e+000 3.437057e+000 1.600200e+000
         vertex 2.473302e+000 3.063127e+000 1.600200e+000
         vertex 1.609090e+001 1.549400e+001 1.600200e+000
      endloop
   endfacet
   facet normal 0.000000e+000 0.000000e+000 1.000000e+000
      outer loop
         vertex 1.920055e+000 3.437057e+000 1.600200e+000
         vertex 1.609090e+001 1.549400e+001 1.600200e+000
         vertex 1.311571e+000 3.712109e+000 1.600200e+000
      endloop
   endfacet
   facet normal 0.000000e+000 0.000000e+000 1.000000e+000
      outer loop
         vertex 2.473302e+000 3.063127e+000 1.600200e+000
         vertex 2.955397e+000 2.601076e+000 1.600200e+000
         vertex 1.609090e+001 1.549400e+001 1.600200e+000
      endloop
   endfacet
   facet normal 0.000000e+000 0.000000e+000 1.000000e+000
      outer loop
         vertex 1.609090e+001 1.549400e+001 1.600200e+000
         vertex 2.955397e+000 2.601076e+000 1.600200e+000
         vertex 3.352470e+000 2.064198e+000 1.600200e+000
      endloop
   endfacet
   facet normal 0.000000e+000 0.000000e+000 1.000000e+000
      outer loop
         vertex 1.609090e+001 1.549400e+001 1.600200e+000
         vertex 3.352470e+000 2.064198e+000 1.600200e+000
         vertex 3.653099e+000 1.467936e+000 1.600200e+000
      endloop
   endfacet
   facet normal 0.000000e+000 0.000000e+000 1.000000e+000
      outer loop
         vertex -2.473302e+000 3.063127e+000 1.600200e+000
         vertex -1.920055e+000 3.437057e+000 1.600200e+000
         vertex -1.609090e+001 1.549400e+001 1.600200e+000
      endloop
   endfacet
   facet normal 0.000000e+000 0.000000e+000 1.000000e+000
      outer loop
         vertex -1.609090e+001 1.549400e+001 1.600200e+000
         vertex -1.920055e+000 3.437057e+000 1.600200e+000
         vertex -1.311571e+000 3.712109e+000 1.600200e+000
      endloop
   endfacet
   facet normal 0.000000e+000 0.000000e+000 1.000000e+000
      outer loop
         vertex -1.311571e+000 3.712109e+000 1.600200e+000
         vertex -6.653562e-001 3.880370e+000 1.600200e+000
         vertex -1.609090e+001 1.549400e+001 1.600200e+000
      endloop
   endfacet
   facet normal 0.000000e+000 0.000000e+000 1.000000e+000
      outer loop
         vertex -1.609090e+001 1.549400e+001 1.600200e+000
         vertex -6.653562e-001 3.880370e+000 1.600200e+000
         vertex 0.000000e+000 3.937000e+000 1.600200e+000
      endloop
   endfacet
   facet normal 0.000000e+000 0.000000e+000 1.000000e+000
      outer loop
         vertex -1.609090e+001 1.549400e+001 1.600200e+000
         vertex 0.000000e+000 3.937000e+000 1.600200e+000
         vertex 1.609090e+001 1.549400e+001 1.600200e+000
      endloop
   endfacet
   facet normal 0.000000e+000 0.000000e+000 1.000000e+000
      outer loop
         vertex 1.609090e+001 1.549400e+001 1.600200e+000
         vertex 0.000000e+000 3.937000e+000 1.600200e+000
         vertex 6.653562e-001 3.880370e+000 1.600200e+000
      endloop
   endfacet
   facet normal 0.000000e+000 0.000000e+000 1.000000e+000
      outer loop
         vertex 1.609090e+001 1.549400e+001 1.600200e+000
         vertex 6.653562e-001 3.880370e+000 1.600200e+000
         vertex 1.311571e+000 3.712109e+000 1.600200e+000
      endloop
   endfacet
   facet normal 0.000000e+000 0.000000e+000 1.000000e+000
      outer loop
         vertex 3.905112e+000 -5.000692e-001 1.600200e+000
         vertex 1.609090e+001 -1.549400e+001 1.600200e+000
         vertex 3.933453e+000 1.670910e-001 1.600200e+000
      endloop
   endfacet
   facet normal 0.000000e+000 0.000000e+000 1.000000e+000
      outer loop
         vertex 3.933453e+000 1.670910e-001 1.600200e+000
         vertex 1.609090e+001 -1.549400e+001 1.600200e+000
         vertex 1.609090e+001 1.549400e+001 1.600200e+000
      endloop
   endfacet
   facet normal 0.000000e+000 0.000000e+000 1.000000e+000
      outer loop
         vertex 3.933453e+000 1.670910e-001 1.600200e+000
         vertex 1.609090e+001 1.549400e+001 1.600200e+000
         vertex 3.848635e+000 8.294443e-001 1.600200e+000
      endloop
   endfacet
   facet normal 0.000000e+000 0.000000e+000 1.000000e+000
      outer loop
         vertex 3.848635e+000 8.294443e-001 1.600200e+000
         vertex 1.609090e+001 1.549400e+001 1.600200e+000
         vertex 3.653099e+000 1.467936e+000 1.600200e+000
      endloop
   endfacet
   facet normal 0.000000e+000 0.000000e+000 1.000000e+000
      outer loop
         vertex -3.848635e+000 8.294443e-001 1.600200e+000
         vertex -3.653099e+000 1.467936e+000 1.600200e+000
         vertex -1.609090e+001 1.549400e+001 1.600200e+000
      endloop
   endfacet
   facet normal 0.000000e+000 0.000000e+000 1.000000e+000
      outer loop
         vertex -9.920376e-001 -3.809964e+000 1.600200e+000
         vertex -1.621655e+000 -3.587507e+000 1.600200e+000
         vertex -1.609090e+001 -1.549400e+001 1.600200e+000
      endloop
   endfacet
   facet normal 0.000000e+000 0.000000e+000 1.000000e+000
      outer loop
         vertex 3.905112e+000 -5.000692e-001 1.600200e+000
         vertex 3.764428e+000 -1.152843e+000 1.600200e+000
         vertex 1.609090e+001 -1.549400e+001 1.600200e+000
      endloop
   endfacet
   facet normal 0.000000e+000 0.000000e+000 1.000000e+000
      outer loop
         vertex 1.609090e+001 -1.549400e+001 1.600200e+000
         vertex 3.764428e+000 -1.152843e+000 1.600200e+000
         vertex 3.515449e+000 -1.772452e+000 1.600200e+000
      endloop
   endfacet
   facet normal 0.000000e+000 0.000000e+000 1.000000e+000
      outer loop
         vertex 1.609090e+001 -1.549400e+001 1.600200e+000
         vertex 3.515449e+000 -1.772452e+000 1.600200e+000
         vertex 3.165337e+000 -2.341071e+000 1.600200e+000
      endloop
   endfacet
   facet normal 0.000000e+000 0.000000e+000 1.000000e+000
      outer loop
         vertex 3.165337e+000 -2.341071e+000 1.600200e+000
         vertex 2.724163e+000 -2.842341e+000 1.600200e+000
         vertex 1.609090e+001 -1.549400e+001 1.600200e+000
      endloop
   endfacet
   facet normal 0.000000e+000 0.000000e+000 1.000000e+000
      outer loop
         vertex 1.609090e+001 -1.549400e+001 1.600200e+000
         vertex 2.724163e+000 -2.842341e+000 1.600200e+000
         vertex 2.204621e+000 -3.261842e+000 1.600200e+000
      endloop
   endfacet
   facet normal 0.000000e+000 0.000000e+000 1.000000e+000
      outer loop
         vertex 1.609090e+001 -1.549400e+001 1.600200e+000
         vertex 2.204621e+000 -3.261842e+000 1.600200e+000
         vertex 1.621655e+000 -3.587507e+000 1.600200e+000
      endloop
   endfacet
   facet normal 0.000000e+000 0.000000e+000 1.000000e+000
      outer loop
         vertex -3.653099e+000 1.467936e+000 1.600200e+000
         vertex -3.352470e+000 2.064198e+000 1.600200e+000
         vertex -1.609090e+001 1.549400e+001 1.600200e+000
      endloop
   endfacet
   facet normal 0.000000e+000 0.000000e+000 1.000000e+000
      outer loop
         vertex -1.609090e+001 1.549400e+001 1.600200e+000
         vertex -3.352470e+000 2.064198e+000 1.600200e+000
         vertex -2.955397e+000 2.601076e+000 1.600200e+000
      endloop
   endfacet
   facet normal 0.000000e+000 0.000000e+000 1.000000e+000
      outer loop
         vertex -1.609090e+001 1.549400e+001 1.600200e+000
         vertex -2.955397e+000 2.601076e+000 1.600200e+000
         vertex -2.473302e+000 3.063127e+000 1.600200e+000
      endloop
   endfacet
   facet normal 0.000000e+000 0.000000e+000 1.000000e+000
      outer loop
         vertex 1.621655e+000 -3.587507e+000 1.600200e+000
         vertex 9.920376e-001 -3.809964e+000 1.600200e+000
         vertex 1.609090e+001 -1.549400e+001 1.600200e+000
      endloop
   endfacet
   facet normal 0.000000e+000 0.000000e+000 1.000000e+000
      outer loop
         vertex 1.609090e+001 -1.549400e+001 1.600200e+000
         vertex 9.920376e-001 -3.809964e+000 1.600200e+000
         vertex 3.338809e-001 -3.922817e+000 1.600200e+000
      endloop
   endfacet
   facet normal 0.000000e+000 0.000000e+000 1.000000e+000
      outer loop
         vertex 1.609090e+001 -1.549400e+001 1.600200e+000
         vertex 3.338809e-001 -3.922817e+000 1.600200e+000
         vertex -1.609090e+001 -1.549400e+001 1.600200e+000
      endloop
   endfacet
   facet normal 0.000000e+000 0.000000e+000 1.000000e+000
      outer loop
         vertex -1.609090e+001 -1.549400e+001 1.600200e+000
         vertex 3.338809e-001 -3.922817e+000 1.600200e+000
         vertex -3.338809e-001 -3.922817e+000 1.600200e+000
      endloop
   endfacet
   facet normal 0.000000e+000 0.000000e+000 1.000000e+000
      outer loop
         vertex -1.609090e+001 -1.549400e+001 1.600200e+000
         vertex -3.338809e-001 -3.922817e+000 1.600200e+000
         vertex -9.920376e-001 -3.809964e+000 1.600200e+000
      endloop
   endfacet
   facet normal 0.000000e+000 0.000000e+000 1.000000e+000
      outer loop
         vertex -1.609090e+001 -1.549400e+001 1.600200e+000
         vertex -3.165337e+000 -2.341071e+000 1.600200e+000
         vertex -3.515449e+000 -1.772452e+000 1.600200e+000
      endloop
   endfacet
   facet normal 0.000000e+000 0.000000e+000 1.000000e+000
      outer loop
         vertex -1.621655e+000 -3.587507e+000 1.600200e+000
         vertex -2.204621e+000 -3.261842e+000 1.600200e+000
         vertex -1.609090e+001 -1.549400e+001 1.600200e+000
      endloop
   endfacet
   facet normal 0.000000e+000 0.000000e+000 1.000000e+000
      outer loop
         vertex -1.609090e+001 -1.549400e+001 1.600200e+000
         vertex -2.204621e+000 -3.261842e+000 1.600200e+000
         vertex -2.724163e+000 -2.842341e+000 1.600200e+000
      endloop
   endfacet
   facet normal 0.000000e+000 0.000000e+000 1.000000e+000
      outer loop
         vertex -1.609090e+001 -1.549400e+001 1.600200e+000
         vertex -2.724163e+000 -2.842341e+000 1.600200e+000
         vertex -3.165337e+000 -2.341071e+000 1.600200e+000
      endloop
   endfacet
   facet normal 0.000000e+000 0.000000e+000 1.000000e+000
      outer loop
         vertex -3.515449e+000 -1.772452e+000 1.600200e+000
         vertex -3.764428e+000 -1.152843e+000 1.600200e+000
         vertex -1.609090e+001 -1.549400e+001 1.600200e+000
      endloop
   endfacet
   facet normal 0.000000e+000 0.000000e+000 1.000000e+000
      outer loop
         vertex -1.609090e+001 -1.549400e+001 1.600200e+000
         vertex -3.764428e+000 -1.152843e+000 1.600200e+000
         vertex -3.905112e+000 -5.000692e-001 1.600200e+000
      endloop
   endfacet
   facet normal 0.000000e+000 0.000000e+000 1.000000e+000
      outer loop
         vertex -1.609090e+001 -1.549400e+001 1.600200e+000
         vertex -3.905112e+000 -5.000692e-001 1.600200e+000
         vertex -1.609090e+001 1.549400e+001 1.600200e+000
      endloop
   endfacet
   facet normal 0.000000e+000 0.000000e+000 1.000000e+000
      outer loop
         vertex -1.609090e+001 1.549400e+001 1.600200e+000
         vertex -3.905112e+000 -5.000692e-001 1.600200e+000
         vertex -3.933453e+000 1.670910e-001 1.600200e+000
      endloop
   endfacet
   facet normal 0.000000e+000 0.000000e+000 1.000000e+000
      outer loop
         vertex -1.609090e+001 1.549400e+001 1.600200e+000
         vertex -3.933453e+000 1.670910e-001 1.600200e+000
         vertex -3.848635e+000 8.294443e-001 1.600200e+000
      endloop
   endfacet
   facet normal 0.000000e+000 0.000000e+000 -1.000000e+000
      outer loop
         vertex 3.653099e+000 1.467936e+000 0.000000e+000
         vertex 3.352470e+000 2.064198e+000 0.000000e+000
         vertex 1.769110e+001 1.549400e+001 0.000000e+000
      endloop
   endfacet
   facet normal 0.000000e+000 0.000000e+000 -1.000000e+000
      outer loop
         vertex -6.653562e-001 3.880370e+000 0.000000e+000
         vertex -1.769110e+001 1.549400e+001 0.000000e+000
         vertex 0.000000e+000 3.937000e+000 0.000000e+000
      endloop
   endfacet
   facet normal 0.000000e+000 0.000000e+000 -1.000000e+000
      outer loop
         vertex 0.000000e+000 3.937000e+000 0.000000e+000
         vertex -1.769110e+001 1.549400e+001 0.000000e+000
         vertex 1.769110e+001 1.549400e+001 0.000000e+000
      endloop
   endfacet
   facet normal 0.000000e+000 0.000000e+000 -1.000000e+000
      outer loop
         vertex -3.515449e+000 -1.772452e+000 0.000000e+000
         vertex -3.165337e+000 -2.341071e+000 0.000000e+000
         vertex -1.769110e+001 -1.549400e+001 0.000000e+000
      endloop
   endfacet
   facet normal 0.000000e+000 0.000000e+000 -1.000000e+000
      outer loop
         vertex 9.920376e-001 -3.809964e+000 0.000000e+000
         vertex 1.621655e+000 -3.587507e+000 0.000000e+000
         vertex 1.769110e+001 -1.549400e+001 0.000000e+000
      endloop
   endfacet
   facet normal 0.000000e+000 0.000000e+000 -1.000000e+000
      outer loop
         vertex 1.769110e+001 -1.549400e+001 0.000000e+000
         vertex 1.621655e+000 -3.587507e+000 0.000000e+000
         vertex 2.204621e+000 -3.261842e+000 0.000000e+000
      endloop
   endfacet
   facet normal 0.000000e+000 0.000000e+000 -1.000000e+000
      outer loop
         vertex -6.653562e-001 3.880370e+000 0.000000e+000
         vertex -1.311571e+000 3.712109e+000 0.000000e+000
         vertex -1.769110e+001 1.549400e+001 0.000000e+000
      endloop
   endfacet
   facet normal 0.000000e+000 0.000000e+000 -1.000000e+000
      outer loop
         vertex -1.769110e+001 1.549400e+001 0.000000e+000
         vertex -1.311571e+000 3.712109e+000 0.000000e+000
         vertex -1.920055e+000 3.437057e+000 0.000000e+000
      endloop
   endfacet
   facet normal 0.000000e+000 0.000000e+000 -1.000000e+000
      outer loop
         vertex -1.769110e+001 1.549400e+001 0.000000e+000
         vertex -1.920055e+000 3.437057e+000 0.000000e+000
         vertex -2.473302e+000 3.063127e+000 0.000000e+000
      endloop
   endfacet
   facet normal 0.000000e+000 0.000000e+000 -1.000000e+000
      outer loop
         vertex -2.473302e+000 3.063127e+000 0.000000e+000
         vertex -2.955397e+000 2.601076e+000 0.000000e+000
         vertex -1.769110e+001 1.549400e+001 0.000000e+000
      endloop
   endfacet
   facet normal 0.000000e+000 0.000000e+000 -1.000000e+000
      outer loop
         vertex -1.769110e+001 1.549400e+001 0.000000e+000
         vertex -2.955397e+000 2.601076e+000 0.000000e+000
         vertex -3.352470e+000 2.064198e+000 0.000000e+000
      endloop
   endfacet
   facet normal 0.000000e+000 0.000000e+000 -1.000000e+000
      outer loop
         vertex -1.769110e+001 1.549400e+001 0.000000e+000
         vertex -3.352470e+000 2.064198e+000 0.000000e+000
         vertex -3.653099e+000 1.467936e+000 0.000000e+000
      endloop
   endfacet
   facet normal 0.000000e+000 0.000000e+000 -1.000000e+000
      outer loop
         vertex -3.515449e+000 -1.772452e+000 0.000000e+000
         vertex -1.769110e+001 -1.549400e+001 0.000000e+000
         vertex -3.764428e+000 -1.152843e+000 0.000000e+000
      endloop
   endfacet
   facet normal 0.000000e+000 0.000000e+000 -1.000000e+000
      outer loop
         vertex 3.653099e+000 1.467936e+000 0.000000e+000
         vertex 1.769110e+001 1.549400e+001 0.000000e+000
         vertex 3.848635e+000 8.294443e-001 0.000000e+000
      endloop
   endfacet
   facet normal 0.000000e+000 0.000000e+000 -1.000000e+000
      outer loop
         vertex 3.352470e+000 2.064198e+000 0.000000e+000
         vertex 2.955397e+000 2.601076e+000 0.000000e+000
         vertex 1.769110e+001 1.549400e+001 0.000000e+000
      endloop
   endfacet
   facet normal 0.000000e+000 0.000000e+000 -1.000000e+000
      outer loop
         vertex 1.769110e+001 1.549400e+001 0.000000e+000
         vertex 2.955397e+000 2.601076e+000 0.000000e+000
         vertex 2.473302e+000 3.063127e+000 0.000000e+000
      endloop
   endfacet
   facet normal 0.000000e+000 0.000000e+000 -1.000000e+000
      outer loop
         vertex 1.769110e+001 1.549400e+001 0.000000e+000
         vertex 2.473302e+000 3.063127e+000 0.000000e+000
         vertex 1.920055e+000 3.437057e+000 0.000000e+000
      endloop
   endfacet
   facet normal 0.000000e+000 0.000000e+000 -1.000000e+000
      outer loop
         vertex 2.204621e+000 -3.261842e+000 0.000000e+000
         vertex 2.724163e+000 -2.842341e+000 0.000000e+000
         vertex 1.769110e+001 -1.549400e+001 0.000000e+000
      endloop
   endfacet
   facet normal 0.000000e+000 0.000000e+000 -1.000000e+000
      outer loop
         vertex 1.769110e+001 -1.549400e+001 0.000000e+000
         vertex 2.724163e+000 -2.842341e+000 0.000000e+000
         vertex 3.165337e+000 -2.341071e+000 0.000000e+000
      endloop
   endfacet
   facet normal 0.000000e+000 0.000000e+000 -1.000000e+000
      outer loop
         vertex 1.769110e+001 -1.549400e+001 0.000000e+000
         vertex 3.165337e+000 -2.341071e+000 0.000000e+000
         vertex 3.515449e+000 -1.772452e+000 0.000000e+000
      endloop
   endfacet
   facet normal 0.000000e+000 0.000000e+000 -1.000000e+000
      outer loop
         vertex 3.515449e+000 -1.772452e+000 0.000000e+000
         vertex 3.764428e+000 -1.152843e+000 0.000000e+000
         vertex 1.769110e+001 -1.549400e+001 0.000000e+000
      endloop
   endfacet
   facet normal 0.000000e+000 0.000000e+000 -1.000000e+000
      outer loop
         vertex 1.769110e+001 -1.549400e+001 0.000000e+000
         vertex 3.764428e+000 -1.152843e+000 0.000000e+000
         vertex 3.905112e+000 -5.000692e-001 0.000000e+000
      endloop
   endfacet
   facet normal 0.000000e+000 0.000000e+000 -1.000000e+000
      outer loop
         vertex 1.769110e+001 -1.549400e+001 0.000000e+000
         vertex 3.905112e+000 -5.000692e-001 0.000000e+000
         vertex 1.769110e+001 1.549400e+001 0.000000e+000
      endloop
   endfacet
   facet normal 0.000000e+000 0.000000e+000 -1.000000e+000
      outer loop
         vertex 1.769110e+001 1.549400e+001 0.000000e+000
         vertex 3.905112e+000 -5.000692e-001 0.000000e+000
         vertex 3.933453e+000 1.670910e-001 0.000000e+000
      endloop
   endfacet
   facet normal 0.000000e+000 0.000000e+000 -1.000000e+000
      outer loop
         vertex 1.769110e+001 1.549400e+001 0.000000e+000
         vertex 3.933453e+000 1.670910e-001 0.000000e+000
         vertex 3.848635e+000 8.294443e-001 0.000000e+000
      endloop
   endfacet
   facet normal 0.000000e+000 0.000000e+000 -1.000000e+000
      outer loop
         vertex 1.920055e+000 3.437057e+000 0.000000e+000
         vertex 1.311571e+000 3.712109e+000 0.000000e+000
         vertex 1.769110e+001 1.549400e+001 0.000000e+000
      endloop
   endfacet
   facet normal 0.000000e+000 0.000000e+000 -1.000000e+000
      outer loop
         vertex 1.769110e+001 1.549400e+001 0.000000e+000
         vertex 1.311571e+000 3.712109e+000 0.000000e+000
         vertex 6.653562e-001 3.880370e+000 0.000000e+000
      endloop
   endfacet
   facet normal 0.000000e+000 0.000000e+000 -1.000000e+000
      outer loop
         vertex 1.769110e+001 1.549400e+001 0.000000e+000
         vertex 6.653562e-001 3.880370e+000 0.000000e+000
         vertex 0.000000e+000 3.937000e+000 0.000000e+000
      endloop
   endfacet
   facet normal 0.000000e+000 0.000000e+000 -1.000000e+000
      outer loop
         vertex -3.165337e+000 -2.341071e+000 0.000000e+000
         vertex -2.724163e+000 -2.842341e+000 0.000000e+000
         vertex -1.769110e+001 -1.549400e+001 0.000000e+000
      endloop
   endfacet
   facet normal 0.000000e+000 0.000000e+000 -1.000000e+000
      outer loop
         vertex -1.769110e+001 -1.549400e+001 0.000000e+000
         vertex -2.724163e+000 -2.842341e+000 0.000000e+000
         vertex -2.204621e+000 -3.261842e+000 0.000000e+000
      endloop
   endfacet
   facet normal 0.000000e+000 0.000000e+000 -1.000000e+000
      outer loop
         vertex -1.769110e+001 -1.549400e+001 0.000000e+000
         vertex -2.204621e+000 -3.261842e+000 0.000000e+000
         vertex -1.621655e+000 -3.587507e+000 0.000000e+000
      endloop
   endfacet
   facet normal 0.000000e+000 0.000000e+000 -1.000000e+000
      outer loop
         vertex -3.653099e+000 1.467936e+000 0.000000e+000
         vertex -3.848635e+000 8.294443e-001 0.000000e+000
         vertex -1.769110e+001 1.549400e+001 0.000000e+000
      endloop
   endfacet
   facet normal 0.000000e+000 0.000000e+000 -1.000000e+000
      outer loop
         vertex -1.769110e+001 1.549400e+001 0.000000e+000
         vertex -3.848635e+000 8.294443e-001 0.000000e+000
         vertex -3.933453e+000 1.670910e-001 0.000000e+000
      endloop
   endfacet
   facet normal 0.000000e+000 0.000000e+000 -1.000000e+000
      outer loop
         vertex -1.769110e+001 1.549400e+001 0.000000e+000
         vertex -3.933453e+000 1.670910e-001 0.000000e+000
         vertex -1.769110e+001 -1.549400e+001 0.000000e+000
      endloop
   endfacet
   facet normal 0.000000e+000 0.000000e+000 -1.000000e+000
      outer loop
         vertex -1.769110e+001 -1.549400e+001 0.000000e+000
         vertex -3.933453e+000 1.670910e-001 0.000000e+000
         vertex -3.905112e+000 -5.000692e-001 0.000000e+000
      endloop
   endfacet
   facet normal 0.000000e+000 0.000000e+000 -1.000000e+000
      outer loop
         vertex -1.769110e+001 -1.549400e+001 0.000000e+000
         vertex -3.905112e+000 -5.000692e-001 0.000000e+000
         vertex -3.764428e+000 -1.152843e+000 0.000000e+000
      endloop
   endfacet
   facet normal 0.000000e+000 0.000000e+000 -1.000000e+000
      outer loop
         vertex -1.621655e+000 -3.587507e+000 0.000000e+000
         vertex -9.920376e-001 -3.809964e+000 0.000000e+000
         vertex -1.769110e+001 -1.549400e+001 0.000000e+000
      endloop
   endfacet
   facet normal 0.000000e+000 0.000000e+000 -1.000000e+000
      outer loop
         vertex -1.769110e+001 -1.549400e+001 0.000000e+000
         vertex -9.920376e-001 -3.809964e+000 0.000000e+000
         vertex -3.338809e-001 -3.922817e+000 0.000000e+000
      endloop
   endfacet
   facet normal 0.000000e+000 0.000000e+000 -1.000000e+000
      outer loop
         vertex -1.769110e+001 -1.549400e+001 0.000000e+000
         vertex -3.338809e-001 -3.922817e+000 0.000000e+000
         vertex 1.769110e+001 -1.549400e+001 0.000000e+000
      endloop
   endfacet
   facet normal 0.000000e+000 0.000000e+000 -1.000000e+000
      outer loop
         vertex 1.769110e+001 -1.549400e+001 0.000000e+000
         vertex -3.338809e-001 -3.922817e+000 0.000000e+000
         vertex 3.338809e-001 -3.922817e+000 0.000000e+000
      endloop
   endfacet
   facet normal 0.000000e+000 0.000000e+000 -1.000000e+000
      outer loop
         vertex 1.769110e+001 -1.549400e+001 0.000000e+000
         vertex 3.338809e-001 -3.922817e+000 0.000000e+000
         vertex 9.920376e-001 -3.809964e+000 0.000000e+000
      endloop
   endfacet
   facet normal -5.651454e-002 -9.984018e-001 2.749478e-017
      outer loop
         vertex -9.642870e-016 3.937000e+000 1.600200e+000
         vertex -9.642870e-016 3.937000e+000 -4.336809e-016
         vertex 6.653562e-001 3.880370e+000 1.600200e+000
      endloop
   endfacet
   facet normal -1.130291e-001 -9.935917e-001 2.736231e-017
      outer loop
         vertex 6.653562e-001 3.880370e+000 1.600200e+000
         vertex -9.642870e-016 3.937000e+000 -4.336809e-016
         vertex 6.653562e-001 3.880370e+000 -4.336809e-016
      endloop
   endfacet
   facet normal -2.244324e-001 -9.744897e-001 2.683627e-017
      outer loop
         vertex 6.653562e-001 3.880370e+000 1.600200e+000
         vertex 6.653562e-001 3.880370e+000 -4.336809e-016
         vertex 1.311571e+000 3.712109e+000 1.600200e+000
      endloop
   endfacet
   facet normal -2.793211e-001 -9.601977e-001 2.644268e-017
      outer loop
         vertex 1.311571e+000 3.712109e+000 1.600200e+000
         vertex 6.653562e-001 3.880370e+000 -4.336809e-016
         vertex 1.311571e+000 3.712109e+000 -4.336809e-016
      endloop
   endfacet
   facet normal -3.858936e-001 -9.225433e-001 2.540573e-017
      outer loop
         vertex 1.311571e+000 3.712109e+000 1.600200e+000
         vertex 1.311571e+000 3.712109e+000 -4.336809e-016
         vertex 1.920055e+000 3.437057e+000 1.600200e+000
      endloop
   endfacet
   facet normal -4.375775e-001 -8.991807e-001 2.476235e-017
      outer loop
         vertex 1.920055e+000 3.437057e+000 1.600200e+000
         vertex 1.311571e+000 3.712109e+000 -4.336809e-016
         vertex 1.920055e+000 3.437057e+000 -4.336809e-016
      endloop
   endfacet
   facet normal -5.362535e-001 -8.440570e-001 2.324431e-017
      outer loop
         vertex 1.920055e+000 3.437057e+000 1.600200e+000
         vertex 1.920055e+000 3.437057e+000 -4.336809e-016
         vertex 2.473302e+000 3.063127e+000 1.600200e+000
      endloop
   endfacet
   facet normal -5.832456e-001 -8.122959e-001 2.236964e-017
      outer loop
         vertex 2.473302e+000 3.063127e+000 1.600200e+000
         vertex 1.920055e+000 3.437057e+000 -4.336809e-016
         vertex 2.473302e+000 3.063127e+000 -4.336809e-016
      endloop
   endfacet
   facet normal -6.711863e-001 -7.412888e-001 2.041420e-017
      outer loop
         vertex 2.473302e+000 3.063127e+000 1.600200e+000
         vertex 2.473302e+000 3.063127e+000 -4.336809e-016
         vertex 2.955397e+000 2.601076e+000 1.600200e+000
      endloop
   endfacet
   facet normal -7.121348e-001 -7.020428e-001 1.933341e-017
      outer loop
         vertex 2.955397e+000 2.601076e+000 1.600200e+000
         vertex 2.473302e+000 3.063127e+000 -4.336809e-016
         vertex 2.955397e+000 2.601076e+000 -4.336809e-016
      endloop
   endfacet
   facet normal -7.868103e-001 -6.171949e-001 1.699680e-017
      outer loop
         vertex 2.955397e+000 2.601076e+000 1.600200e+000
         vertex 2.955397e+000 2.601076e+000 -4.336809e-016
         vertex 3.352470e+000 2.064198e+000 1.600200e+000
      endloop
   endfacet
   facet normal -8.205372e-001 -5.715931e-001 1.574098e-017
      outer loop
         vertex 3.352470e+000 2.064198e+000 1.600200e+000
         vertex 2.955397e+000 2.601076e+000 -4.336809e-016
         vertex 3.352470e+000 2.064198e+000 -4.336809e-016
      endloop
   endfacet
   facet normal -8.797992e-001 -4.753455e-001 1.309044e-017
      outer loop
         vertex 3.352470e+000 2.064198e+000 1.600200e+000
         vertex 3.352470e+000 2.064198e+000 -4.336809e-016
         vertex 3.653099e+000 1.467936e+000 1.600200e+000
      endloop
   endfacet
   facet normal -9.053342e-001 -4.246998e-001 1.169572e-017
      outer loop
         vertex 3.653099e+000 1.467936e+000 1.600200e+000
         vertex 3.352470e+000 2.064198e+000 -4.336809e-016
         vertex 3.653099e+000 1.467936e+000 -4.336809e-016
      endloop
   endfacet
   facet normal -9.474779e-001 -3.198213e-001 8.807492e-018
      outer loop
         vertex 3.653099e+000 1.467936e+000 1.600200e+000
         vertex 3.653099e+000 1.467936e+000 -4.336809e-016
         vertex 3.848635e+000 8.294443e-001 1.600200e+000
      endloop
   endfacet
   facet normal -9.640865e-001 -2.655886e-001 7.313991e-018
      outer loop
         vertex 3.848635e+000 8.294443e-001 1.600200e+000
         vertex 3.653099e+000 1.467936e+000 -4.336809e-016
         vertex 3.848635e+000 8.294443e-001 -4.336809e-016
      endloop
   endfacet
   facet normal -9.878993e-001 -1.550965e-001 4.271169e-018
      outer loop
         vertex 3.848635e+000 8.294443e-001 1.600200e+000
         vertex 3.848635e+000 8.294443e-001 -4.336809e-016
         vertex 3.933453e+000 1.670910e-001 1.600200e+000
      endloop
   endfacet
   facet normal -9.951036e-001 -9.883699e-002 2.721852e-018
      outer loop
         vertex 3.933453e+000 1.670910e-001 1.600200e+000
         vertex 3.848635e+000 8.294443e-001 -4.336809e-016
         vertex 3.933453e+000 1.670910e-001 -4.336809e-016
      endloop
   endfacet
   facet normal -9.999007e-001 1.409025e-002 -3.880284e-019
      outer loop
         vertex 3.933453e+000 1.670910e-001 1.600200e+000
         vertex 3.933453e+000 1.670910e-001 -4.336809e-016
         vertex 3.905112e+000 -5.000692e-001 1.600200e+000
      endloop
   endfacet
   facet normal -9.974935e-001 7.075802e-002 -1.948590e-018
      outer loop
         vertex 3.905112e+000 -5.000692e-001 1.600200e+000
         vertex 3.933453e+000 1.670910e-001 -4.336809e-016
         vertex 3.905112e+000 -5.000692e-001 -4.336809e-016
      endloop
   endfacet
   facet normal -9.831368e-001 1.828716e-001 -5.036063e-018
      outer loop
         vertex 3.905112e+000 -5.000692e-001 1.600200e+000
         vertex 3.905112e+000 -5.000692e-001 -4.336809e-016
         vertex 3.764428e+000 -1.152843e+000 1.600200e+000
      endloop
   endfacet
   facet normal -9.711873e-001 2.383175e-001 -6.562975e-018
      outer loop
         vertex 3.764428e+000 -1.152843e+000 1.600200e+000
         vertex 3.905112e+000 -5.000692e-001 -4.336809e-016
         vertex 3.764428e+000 -1.152843e+000 -4.336809e-016
      endloop
   endfacet
   facet normal -9.380898e-001 3.463921e-001 -9.539221e-018
      outer loop
         vertex 3.764428e+000 -1.152843e+000 1.600200e+000
         vertex 3.764428e+000 -1.152843e+000 -4.336809e-016
         vertex 3.515449e+000 -1.772452e+000 1.600200e+000
      endloop
   endfacet
   facet normal -9.169418e-001 3.990209e-001 -1.098855e-017
      outer loop
         vertex 3.515449e+000 -1.772452e+000 1.600200e+000
         vertex 3.764428e+000 -1.152843e+000 -4.336809e-016
         vertex 3.515449e+000 -1.772452e+000 -4.336809e-016
      endloop
   endfacet
   facet normal -8.660557e-001 4.999475e-001 -1.376795e-017
      outer loop
         vertex 3.515449e+000 -1.772452e+000 1.600200e+000
         vertex 3.515449e+000 -1.772452e+000 -4.336809e-016
         vertex 3.165337e+000 -2.341071e+000 1.600200e+000
      endloop
   endfacet
   facet normal -8.363176e-001 5.482453e-001 -1.509801e-017
      outer loop
         vertex 3.165337e+000 -2.341071e+000 1.600200e+000
         vertex 3.515449e+000 -1.772452e+000 -4.336809e-016
         vertex 3.165337e+000 -2.341071e+000 -4.336809e-016
      endloop
   endfacet
   facet normal -7.691067e-001 6.391203e-001 -1.760060e-017
      outer loop
         vertex 3.165337e+000 -2.341071e+000 1.600200e+000
         vertex 3.165337e+000 -2.341071e+000 -4.336809e-016
         vertex 2.724163e+000 -2.842341e+000 1.600200e+000
      endloop
   endfacet
   facet normal -7.316340e-001 6.816977e-001 -1.877313e-017
      outer loop
         vertex 2.724163e+000 -2.842341e+000 1.600200e+000
         vertex 3.165337e+000 -2.341071e+000 -4.336809e-016
         vertex 2.724163e+000 -2.842341e+000 -4.336809e-016
      endloop
   endfacet
   facet normal -6.500320e-001 7.599069e-001 -2.092692e-017
      outer loop
         vertex 2.724163e+000 -2.842341e+000 1.600200e+000
         vertex 2.724163e+000 -2.842341e+000 -4.336809e-016
         vertex 2.204621e+000 -3.261842e+000 1.600200e+000
      endloop
   endfacet
   facet normal -6.059027e-001 7.955388e-001 -2.190818e-017
      outer loop
         vertex 2.204621e+000 -3.261842e+000 1.600200e+000
         vertex 2.724163e+000 -2.842341e+000 -4.336809e-016
         vertex 2.204621e+000 -3.261842e+000 -4.336809e-016
      endloop
   endfacet
   facet normal -5.122570e-001 8.588322e-001 -2.365120e-017
      outer loop
         vertex 2.204621e+000 -3.261842e+000 1.600200e+000
         vertex 2.204621e+000 -3.261842e+000 -4.336809e-016
         vertex 1.621655e+000 -3.587507e+000 1.600200e+000
      endloop
   endfacet
   facet normal -4.627406e-001 8.864937e-001 -2.441296e-017
      outer loop
         vertex 1.621655e+000 -3.587507e+000 1.600200e+000
         vertex 2.204621e+000 -3.261842e+000 -4.336809e-016
         vertex 1.621655e+000 -3.587507e+000 -4.336809e-016
      endloop
   endfacet
   facet normal -3.597453e-001 9.330506e-001 -2.569508e-017
      outer loop
         vertex 1.621655e+000 -3.587507e+000 1.600200e+000
         vertex 1.621655e+000 -3.587507e+000 -4.336809e-016
         vertex 9.920376e-001 -3.809964e+000 1.600200e+000
      endloop
   endfacet
   facet normal -3.062663e-001 9.519458e-001 -2.621543e-017
      outer loop
         vertex 9.920376e-001 -3.809964e+000 1.600200e+000
         vertex 1.621655e+000 -3.587507e+000 -4.336809e-016
         vertex 9.920376e-001 -3.809964e+000 -4.336809e-016
      endloop
   endfacet
   facet normal -1.968844e-001 9.804267e-001 -2.699976e-017
      outer loop
         vertex 9.920376e-001 -3.809964e+000 1.600200e+000
         vertex 9.920376e-001 -3.809964e+000 -4.336809e-016
         vertex 3.338809e-001 -3.922817e+000 1.600200e+000
      endloop
   endfacet
   facet normal -1.409813e-001 9.900123e-001 -2.726374e-017
      outer loop
         vertex 3.338809e-001 -3.922817e+000 1.600200e+000
         vertex 9.920376e-001 -3.809964e+000 -4.336809e-016
         vertex 3.338809e-001 -3.922817e+000 -4.336809e-016
      endloop
   endfacet
   facet normal -2.835944e-002 9.995977e-001 -2.752771e-017
      outer loop
         vertex 3.338809e-001 -3.922817e+000 1.600200e+000
         vertex 3.338809e-001 -3.922817e+000 -4.336809e-016
         vertex -3.338809e-001 -3.922817e+000 1.600200e+000
      endloop
   endfacet
   facet normal 2.835944e-002 9.995977e-001 -2.752771e-017
      outer loop
         vertex -3.338809e-001 -3.922817e+000 1.600200e+000
         vertex 3.338809e-001 -3.922817e+000 -4.336809e-016
         vertex -3.338809e-001 -3.922817e+000 -4.336809e-016
      endloop
   endfacet
   facet normal 1.409813e-001 9.900123e-001 -2.726374e-017
      outer loop
         vertex -3.338809e-001 -3.922817e+000 1.600200e+000
         vertex -3.338809e-001 -3.922817e+000 -4.336809e-016
         vertex -9.920376e-001 -3.809964e+000 1.600200e+000
      endloop
   endfacet
   facet normal 1.968844e-001 9.804267e-001 -2.699977e-017
      outer loop
         vertex -9.920376e-001 -3.809964e+000 1.600200e+000
         vertex -3.338809e-001 -3.922817e+000 -4.336809e-016
         vertex -9.920376e-001 -3.809964e+000 -4.336809e-016
      endloop
   endfacet
   facet normal 3.062663e-001 9.519458e-001 -2.621544e-017
      outer loop
         vertex -9.920376e-001 -3.809964e+000 1.600200e+000
         vertex -9.920376e-001 -3.809964e+000 -4.336809e-016
         vertex -1.621655e+000 -3.587507e+000 1.600200e+000
      endloop
   endfacet
   facet normal 3.597453e-001 9.330506e-001 -2.569508e-017
      outer loop
         vertex -1.621655e+000 -3.587507e+000 1.600200e+000
         vertex -9.920376e-001 -3.809964e+000 -4.336809e-016
         vertex -1.621655e+000 -3.587507e+000 -4.336809e-016
      endloop
   endfacet
   facet normal 4.627406e-001 8.864937e-001 -2.441296e-017
      outer loop
         vertex -1.621655e+000 -3.587507e+000 1.600200e+000
         vertex -1.621655e+000 -3.587507e+000 -4.336809e-016
         vertex -2.204621e+000 -3.261842e+000 1.600200e+000
      endloop
   endfacet
   facet normal 5.122570e-001 8.588322e-001 -2.365120e-017
      outer loop
         vertex -2.204621e+000 -3.261842e+000 1.600200e+000
         vertex -1.621655e+000 -3.587507e+000 -4.336809e-016
         vertex -2.204621e+000 -3.261842e+000 -4.336809e-016
      endloop
   endfacet
   facet normal 6.059027e-001 7.955388e-001 -2.190818e-017
      outer loop
         vertex -2.204621e+000 -3.261842e+000 1.600200e+000
         vertex -2.204621e+000 -3.261842e+000 -4.336809e-016
         vertex -2.724163e+000 -2.842341e+000 1.600200e+000
      endloop
   endfacet
   facet normal 6.500320e-001 7.599069e-001 -2.092692e-017
      outer loop
         vertex -2.724163e+000 -2.842341e+000 1.600200e+000
         vertex -2.204621e+000 -3.261842e+000 -4.336809e-016
         vertex -2.724163e+000 -2.842341e+000 -4.336809e-016
      endloop
   endfacet
   facet normal 7.316340e-001 6.816977e-001 -1.877313e-017
      outer loop
         vertex -2.724163e+000 -2.842341e+000 1.600200e+000
         vertex -2.724163e+000 -2.842341e+000 -4.336809e-016
         vertex -3.165337e+000 -2.341071e+000 1.600200e+000
      endloop
   endfacet
   facet normal 7.691067e-001 6.391203e-001 -1.760060e-017
      outer loop
         vertex -3.165337e+000 -2.341071e+000 1.600200e+000
         vertex -2.724163e+000 -2.842341e+000 -4.336809e-016
         vertex -3.165337e+000 -2.341071e+000 -4.336809e-016
      endloop
   endfacet
   facet normal 8.363176e-001 5.482453e-001 -1.509801e-017
      outer loop
         vertex -3.165337e+000 -2.341071e+000 1.600200e+000
         vertex -3.165337e+000 -2.341071e+000 -4.336809e-016
         vertex -3.515449e+000 -1.772452e+000 1.600200e+000
      endloop
   endfacet
   facet normal 8.660557e-001 4.999475e-001 -1.376795e-017
      outer loop
         vertex -3.515449e+000 -1.772452e+000 1.600200e+000
         vertex -3.165337e+000 -2.341071e+000 -4.336809e-016
         vertex -3.515449e+000 -1.772452e+000 -4.336809e-016
      endloop
   endfacet
   facet normal 9.169418e-001 3.990209e-001 -1.098855e-017
      outer loop
         vertex -3.515449e+000 -1.772452e+000 1.600200e+000
         vertex -3.515449e+000 -1.772452e+000 -4.336809e-016
         vertex -3.764428e+000 -1.152843e+000 1.600200e+000
      endloop
   endfacet
   facet normal 9.380898e-001 3.463921e-001 -9.539221e-018
      outer loop
         vertex -3.764428e+000 -1.152843e+000 1.600200e+000
         vertex -3.515449e+000 -1.772452e+000 -4.336809e-016
         vertex -3.764428e+000 -1.152843e+000 -4.336809e-016
      endloop
   endfacet
   facet normal 9.711873e-001 2.383175e-001 -6.562975e-018
      outer loop
         vertex -3.764428e+000 -1.152843e+000 1.600200e+000
         vertex -3.764428e+000 -1.152843e+000 -4.336809e-016
         vertex -3.905112e+000 -5.000692e-001 1.600200e+000
      endloop
   endfacet
   facet normal 9.831368e-001 1.828716e-001 -5.036063e-018
      outer loop
         vertex -3.905112e+000 -5.000692e-001 1.600200e+000
         vertex -3.764428e+000 -1.152843e+000 -4.336809e-016
         vertex -3.905112e+000 -5.000692e-001 -4.336809e-016
      endloop
   endfacet
   facet normal 9.974935e-001 7.075802e-002 -1.948590e-018
      outer loop
         vertex -3.905112e+000 -5.000692e-001 1.600200e+000
         vertex -3.905112e+000 -5.000692e-001 -4.336809e-016
         vertex -3.933453e+000 1.670910e-001 1.600200e+000
      endloop
   endfacet
   facet normal 9.999007e-001 1.409025e-002 -3.880284e-019
      outer loop
         vertex -3.933453e+000 1.670910e-001 1.600200e+000
         vertex -3.905112e+000 -5.000692e-001 -4.336809e-016
         vertex -3.933453e+000 1.670910e-001 -4.336809e-016
      endloop
   endfacet
   facet normal 9.951036e-001 -9.883699e-002 2.721851e-018
      outer loop
         vertex -3.933453e+000 1.670910e-001 1.600200e+000
         vertex -3.933453e+000 1.670910e-001 -4.336809e-016
         vertex -3.848635e+000 8.294443e-001 1.600200e+000
      endloop
   endfacet
   facet normal 9.878993e-001 -1.550965e-001 4.271169e-018
      outer loop
         vertex -3.848635e+000 8.294443e-001 1.600200e+000
         vertex -3.933453e+000 1.670910e-001 -4.336809e-016
         vertex -3.848635e+000 8.294443e-001 -4.336809e-016
      endloop
   endfacet
   facet normal 9.640865e-001 -2.655886e-001 7.313991e-018
      outer loop
         vertex -3.848635e+000 8.294443e-001 1.600200e+000
         vertex -3.848635e+000 8.294443e-001 -4.336809e-016
         vertex -3.653099e+000 1.467936e+000 1.600200e+000
      endloop
   endfacet
   facet normal 9.474779e-001 -3.198213e-001 8.807493e-018
      outer loop
         vertex -3.653099e+000 1.467936e+000 1.600200e+000
         vertex -3.848635e+000 8.294443e-001 -4.336809e-016
         vertex -3.653099e+000 1.467936e+000 -4.336809e-016
      endloop
   endfacet
   facet normal 9.053342e-001 -4.246998e-001 1.169572e-017
      outer loop
         vertex -3.653099e+000 1.467936e+000 1.600200e+000
         vertex -3.653099e+000 1.467936e+000 -4.336809e-016
         vertex -3.352470e+000 2.064198e+000 1.600200e+000
      endloop
   endfacet
   facet normal 8.797992e-001 -4.753455e-001 1.309044e-017
      outer loop
         vertex -3.352470e+000 2.064198e+000 1.600200e+000
         vertex -3.653099e+000 1.467936e+000 -4.336809e-016
         vertex -3.352470e+000 2.064198e+000 -4.336809e-016
      endloop
   endfacet
   facet normal 8.205372e-001 -5.715931e-001 1.574098e-017
      outer loop
         vertex -3.352470e+000 2.064198e+000 1.600200e+000
         vertex -3.352470e+000 2.064198e+000 -4.336809e-016
         vertex -2.955397e+000 2.601076e+000 1.600200e+000
      endloop
   endfacet
   facet normal 7.868103e-001 -6.171949e-001 1.699680e-017
      outer loop
         vertex -2.955397e+000 2.601076e+000 1.600200e+000
         vertex -3.352470e+000 2.064198e+000 -4.336809e-016
         vertex -2.955397e+000 2.601076e+000 -4.336809e-016
      endloop
   endfacet
   facet normal 7.121348e-001 -7.020428e-001 1.933341e-017
      outer loop
         vertex -2.955397e+000 2.601076e+000 1.600200e+000
         vertex -2.955397e+000 2.601076e+000 -4.336809e-016
         vertex -2.473302e+000 3.063127e+000 1.600200e+000
      endloop
   endfacet
   facet normal 6.711863e-001 -7.412888e-001 2.041420e-017
      outer loop
         vertex -2.473302e+000 3.063127e+000 1.600200e+000
         vertex -2.955397e+000 2.601076e+000 -4.336809e-016
         vertex -2.473302e+000 3.063127e+000 -4.336809e-016
      endloop
   endfacet
   facet normal 5.832456e-001 -8.122959e-001 2.236965e-017
      outer loop
         vertex -2.473302e+000 3.063127e+000 1.600200e+000
         vertex -2.473302e+000 3.063127e+000 -4.336809e-016
         vertex -1.920055e+000 3.437057e+000 1.600200e+000
      endloop
   endfacet
   facet normal 5.362535e-001 -8.440570e-001 2.324431e-017
      outer loop
         vertex -1.920055e+000 3.437057e+000 1.600200e+000
         vertex -2.473302e+000 3.063127e+000 -4.336809e-016
         vertex -1.920055e+000 3.437057e+000 -4.336809e-016
      endloop
   endfacet
   facet normal 4.375775e-001 -8.991807e-001 2.476235e-017
      outer loop
         vertex -1.920055e+000 3.437057e+000 1.600200e+000
         vertex -1.920055e+000 3.437057e+000 -4.336809e-016
         vertex -1.311571e+000 3.712109e+000 1.600200e+000
      endloop
   endfacet
   facet normal 3.858936e-001 -9.225433e-001 2.540572e-017
      outer loop
         vertex -1.311571e+000 3.712109e+000 1.600200e+000
         vertex -1.920055e+000 3.437057e+000 -4.336809e-016
         vertex -1.311571e+000 3.712109e+000 -4.336809e-016
      endloop
   endfacet
   facet normal 2.793211e-001 -9.601977e-001 2.644268e-017
      outer loop
         vertex -1.311571e+000 3.712109e+000 1.600200e+000
         vertex -1.311571e+000 3.712109e+000 -4.336809e-016
         vertex -6.653562e-001 3.880370e+000 1.600200e+000
      endloop
   endfacet
   facet normal 2.244324e-001 -9.744897e-001 2.683627e-017
      outer loop
         vertex -6.653562e-001 3.880370e+000 1.600200e+000
         vertex -1.311571e+000 3.712109e+000 -4.336809e-016
         vertex -6.653562e-001 3.880370e+000 -4.336809e-016
      endloop
   endfacet
   facet normal 1.130291e-001 -9.935917e-001 2.736231e-017
      outer loop
         vertex -6.653562e-001 3.880370e+000 1.600200e+000
         vertex -6.653562e-001 3.880370e+000 -4.336809e-016
         vertex -9.642870e-016 3.937000e+000 1.600200e+000
      endloop
   endfacet
   facet normal 5.651454e-002 -9.984018e-001 2.749478e-017
      outer loop
         vertex -9.642870e-016 3.937000e+000 1.600200e+000
         vertex -6.653562e-001 3.880370e+000 -4.336809e-016
         vertex -9.642870e-016 3.937000e+000 -4.336809e-016
      endloop
   endfacet
endsolid