solid Finger-2_Default_sldprt
   facet normal 1.000000e+000 0.000000e+000 0.000000e+000
      outer loop
         vertex 2.209800e+001 0.000000e+000 2.286000e+000
         vertex 2.209800e+001 0.000000e+000 0.000000e+000
         vertex 2.209800e+001 4.673600e+001 2.286000e+000
      endloop
   endfacet
   facet normal 1.000000e+000 0.000000e+000 0.000000e+000
      outer loop
         vertex 2.209800e+001 4.673600e+001 2.286000e+000
         vertex 2.209800e+001 0.000000e+000 0.000000e+000
         vertex 2.209800e+001 4.673600e+001 0.000000e+000
      endloop
   endfacet
   facet normal 0.000000e+000 1.000000e+000 0.000000e+000
      outer loop
         vertex 2.209800e+001 4.673600e+001 2.286000e+000
         vertex 2.209800e+001 4.673600e+001 0.000000e+000
         vertex 0.000000e+000 4.673600e+001 2.286000e+000
      endloop
   endfacet
   facet normal 0.000000e+000 1.000000e+000 0.000000e+000
      outer loop
         vertex 0.000000e+000 4.673600e+001 2.286000e+000
         vertex 2.209800e+001 4.673600e+001 0.000000e+000
         vertex 0.000000e+000 4.673600e+001 0.000000e+000
      endloop
   endfacet
   facet normal 0.000000e+000 0.000000e+000 1.000000e+000
      outer loop
         vertex 2.209800e+001 4.673600e+001 2.286000e+000
         vertex 0.000000e+000 4.673600e+001 2.286000e+000
         vertex 2.209800e+001 0.000000e+000 2.286000e+000
      endloop
   endfacet
   facet normal 0.000000e+000 0.000000e+000 1.000000e+000
      outer loop
         vertex 2.209800e+001 0.000000e+000 2.286000e+000
         vertex 0.000000e+000 4.673600e+001 2.286000e+000
         vertex 0.000000e+000 0.000000e+000 2.286000e+000
      endloop
   endfacet
   facet normal 0.000000e+000 -1.000000e+000 0.000000e+000
      outer loop
         vertex 0.000000e+000 0.000000e+000 2.286000e+000
         vertex 0.000000e+000 0.000000e+000 0.000000e+000
         vertex 2.209800e+001 0.000000e+000 2.286000e+000
      endloop
   endfacet
   facet normal 0.000000e+000 -1.000000e+000 0.000000e+000
      outer loop
         vertex 2.209800e+001 0.000000e+000 2.286000e+000
         vertex 0.000000e+000 0.000000e+000 0.000000e+000
         vertex 2.209800e+001 0.000000e+000 0.000000e+000
      endloop
   endfacet
   facet normal 0.000000e+000 0.000000e+000 -1.000000e+000
      outer loop
         vertex 0.000000e+000 0.000000e+000 0.000000e+000
         vertex 0.000000e+000 4.673600e+001 0.000000e+000
         vertex 2.209800e+001 0.000000e+000 0.000000e+000
      endloop
   endfacet
   facet normal 0.000000e+000 0.000000e+000 -1.000000e+000
      outer loop
         vertex 2.209800e+001 0.000000e+000 0.000000e+000
         vertex 0.000000e+000 4.673600e+001 0.000000e+000
         vertex 2.209800e+001 4.673600e+001 0.000000e+000
      endloop
   endfacet
   facet normal -1.000000e+000 0.000000e+000 0.000000e+000
      outer loop
         vertex 0.000000e+000 4.673600e+001 2.286000e+000
         vertex 0.000000e+000 4.673600e+001 0.000000e+000
         vertex 0.000000e+000 0.000000e+000 2.286000e+000
      endloop
   endfacet
   facet normal -1.000000e+000 0.000000e+000 0.000000e+000
      outer loop
         vertex 0.000000e+000 0.000000e+000 2.286000e+000
         vertex 0.000000e+000 4.673600e+001 0.000000e+000
         vertex 0.000000e+000 0.000000e+000 0.000000e+000
      endloop
   endfacet
endsolid