solid RX-64 BRKT_Default_sldprt
   facet normal 0.000000e+000 0.000000e+000 1.000000e+000
      outer loop
         vertex 1.701800e+001 -1.701800e+001 1.016000e+001
         vertex -1.701800e+001 -1.701800e+001 1.016000e+001
         vertex 1.701800e+001 -1.905000e+001 1.016000e+001
      endloop
   endfacet
   facet normal 0.000000e+000 0.000000e+000 1.000000e+000
      outer loop
         vertex 1.701800e+001 -1.905000e+001 1.016000e+001
         vertex -1.701800e+001 -1.701800e+001 1.016000e+001
         vertex -1.701800e+001 -1.905000e+001 1.016000e+001
      endloop
   endfacet
   facet normal 0.000000e+000 0.000000e+000 1.000000e+000
      outer loop
         vertex -1.701800e+001 1.905000e+001 1.016000e+001
         vertex -1.701800e+001 1.701800e+001 1.016000e+001
         vertex 1.701800e+001 1.905000e+001 1.016000e+001
      endloop
   endfacet
   facet normal 0.000000e+000 0.000000e+000 1.000000e+000
      outer loop
         vertex 1.701800e+001 1.905000e+001 1.016000e+001
         vertex -1.701800e+001 1.701800e+001 1.016000e+001
         vertex 1.701800e+001 1.701800e+001 1.016000e+001
      endloop
   endfacet
   facet normal 0.000000e+000 -1.000000e+000 0.000000e+000
      outer loop
         vertex -1.701800e+001 -1.905000e+001 1.016000e+001
         vertex -1.701800e+001 -1.905000e+001 0.000000e+000
         vertex 1.701800e+001 -1.905000e+001 1.016000e+001
      endloop
   endfacet
   facet normal 0.000000e+000 -1.000000e+000 0.000000e+000
      outer loop
         vertex 1.701800e+001 -1.905000e+001 1.016000e+001
         vertex -1.701800e+001 -1.905000e+001 0.000000e+000
         vertex 1.701800e+001 -1.905000e+001 0.000000e+000
      endloop
   endfacet
   facet normal 0.000000e+000 1.000000e+000 0.000000e+000
      outer loop
         vertex 1.701800e+001 1.905000e+001 1.016000e+001
         vertex 1.701800e+001 1.905000e+001 0.000000e+000
         vertex -1.701800e+001 1.905000e+001 1.016000e+001
      endloop
   endfacet
   facet normal 0.000000e+000 1.000000e+000 0.000000e+000
      outer loop
         vertex -1.701800e+001 1.905000e+001 1.016000e+001
         vertex 1.701800e+001 1.905000e+001 0.000000e+000
         vertex -1.701800e+001 1.905000e+001 0.000000e+000
      endloop
   endfacet
   facet normal -1.000000e+000 0.000000e+000 0.000000e+000
      outer loop
         vertex -1.701800e+001 1.701800e+001 1.016000e+001
         vertex -1.701800e+001 1.905000e+001 1.016000e+001
         vertex -1.701800e+001 1.701800e+001 2.032000e+000
      endloop
   endfacet
   facet normal -1.000000e+000 0.000000e+000 0.000000e+000
      outer loop
         vertex -1.701800e+001 1.701800e+001 2.032000e+000
         vertex -1.701800e+001 1.905000e+001 1.016000e+001
         vertex -1.701800e+001 1.905000e+001 0.000000e+000
      endloop
   endfacet
   facet normal -1.000000e+000 0.000000e+000 0.000000e+000
      outer loop
         vertex -1.701800e+001 1.701800e+001 2.032000e+000
         vertex -1.701800e+001 1.905000e+001 0.000000e+000
         vertex -1.701800e+001 -1.701800e+001 2.032000e+000
      endloop
   endfacet
   facet normal -1.000000e+000 0.000000e+000 0.000000e+000
      outer loop
         vertex -1.701800e+001 -1.701800e+001 2.032000e+000
         vertex -1.701800e+001 1.905000e+001 0.000000e+000
         vertex -1.701800e+001 -1.905000e+001 0.000000e+000
      endloop
   endfacet
   facet normal -1.000000e+000 0.000000e+000 0.000000e+000
      outer loop
         vertex -1.701800e+001 -1.701800e+001 2.032000e+000
         vertex -1.701800e+001 -1.905000e+001 0.000000e+000
         vertex -1.701800e+001 -1.701800e+001 1.016000e+001
      endloop
   endfacet
   facet normal -1.000000e+000 0.000000e+000 0.000000e+000
      outer loop
         vertex -1.701800e+001 -1.701800e+001 1.016000e+001
         vertex -1.701800e+001 -1.905000e+001 0.000000e+000
         vertex -1.701800e+001 -1.905000e+001 1.016000e+001
      endloop
   endfacet
   facet normal 0.000000e+000 1.000000e+000 0.000000e+000
      outer loop
         vertex 1.701800e+001 -1.701800e+001 1.016000e+001
         vertex 1.701800e+001 -1.701800e+001 2.032000e+000
         vertex -1.701800e+001 -1.701800e+001 1.016000e+001
      endloop
   endfacet
   facet normal 0.000000e+000 1.000000e+000 0.000000e+000
      outer loop
         vertex -1.701800e+001 -1.701800e+001 1.016000e+001
         vertex 1.701800e+001 -1.701800e+001 2.032000e+000
         vertex -1.701800e+001 -1.701800e+001 2.032000e+000
      endloop
   endfacet
   facet normal 1.000000e+000 0.000000e+000 0.000000e+000
      outer loop
         vertex 1.701800e+001 -1.701800e+001 1.016000e+001
         vertex 1.701800e+001 -1.905000e+001 1.016000e+001
         vertex 1.701800e+001 -1.701800e+001 2.032000e+000
      endloop
   endfacet
   facet normal 1.000000e+000 0.000000e+000 0.000000e+000
      outer loop
         vertex 1.701800e+001 -1.701800e+001 2.032000e+000
         vertex 1.701800e+001 -1.905000e+001 1.016000e+001
         vertex 1.701800e+001 -1.905000e+001 0.000000e+000
      endloop
   endfacet
   facet normal 1.000000e+000 0.000000e+000 0.000000e+000
      outer loop
         vertex 1.701800e+001 -1.701800e+001 2.032000e+000
         vertex 1.701800e+001 -1.905000e+001 0.000000e+000
         vertex 1.701800e+001 1.701800e+001 2.032000e+000
      endloop
   endfacet
   facet normal 1.000000e+000 0.000000e+000 0.000000e+000
      outer loop
         vertex 1.701800e+001 1.701800e+001 2.032000e+000
         vertex 1.701800e+001 -1.905000e+001 0.000000e+000
         vertex 1.701800e+001 1.905000e+001 0.000000e+000
      endloop
   endfacet
   facet normal 1.000000e+000 0.000000e+000 0.000000e+000
      outer loop
         vertex 1.701800e+001 1.701800e+001 2.032000e+000
         vertex 1.701800e+001 1.905000e+001 0.000000e+000
         vertex 1.701800e+001 1.701800e+001 1.016000e+001
      endloop
   endfacet
   facet normal 1.000000e+000 0.000000e+000 0.000000e+000
      outer loop
         vertex 1.701800e+001 1.701800e+001 1.016000e+001
         vertex 1.701800e+001 1.905000e+001 0.000000e+000
         vertex 1.701800e+001 1.905000e+001 1.016000e+001
      endloop
   endfacet
   facet normal 0.000000e+000 -1.000000e+000 0.000000e+000
      outer loop
         vertex -1.701800e+001 1.701800e+001 1.016000e+001
         vertex -1.701800e+001 1.701800e+001 2.032000e+000
         vertex 1.701800e+001 1.701800e+001 1.016000e+001
      endloop
   endfacet
   facet normal 0.000000e+000 -1.000000e+000 0.000000e+000
      outer loop
         vertex 1.701800e+001 1.701800e+001 1.016000e+001
         vertex -1.701800e+001 1.701800e+001 2.032000e+000
         vertex 1.701800e+001 1.701800e+001 2.032000e+000
      endloop
   endfacet
   facet normal 0.000000e+000 0.000000e+000 -1.000000e+000
      outer loop
         vertex -3.066048e+000 -4.145570e+000 0.000000e+000
         vertex -2.321341e+000 -4.604105e+000 0.000000e+000
         vertex -1.701800e+001 -1.905000e+001 0.000000e+000
      endloop
   endfacet
   facet normal 0.000000e+000 0.000000e+000 -1.000000e+000
      outer loop
         vertex -4.989825e+000 -1.299249e+000 0.000000e+000
         vertex -4.698476e+000 -2.123845e+000 0.000000e+000
         vertex -1.701800e+001 -1.905000e+001 0.000000e+000
      endloop
   endfacet
   facet normal 0.000000e+000 0.000000e+000 -1.000000e+000
      outer loop
         vertex 4.861664e+000 1.717735e+000 0.000000e+000
         vertex 4.501435e+000 2.514653e+000 0.000000e+000
         vertex 1.701800e+001 1.905000e+001 0.000000e+000
      endloop
   endfacet
   facet normal 0.000000e+000 0.000000e+000 -1.000000e+000
      outer loop
         vertex 1.701800e+001 1.905000e+001 0.000000e+000
         vertex 4.501435e+000 2.514653e+000 0.000000e+000
         vertex 4.011708e+000 3.239228e+000 0.000000e+000
      endloop
   endfacet
   facet normal 0.000000e+000 0.000000e+000 -1.000000e+000
      outer loop
         vertex -4.698476e+000 -2.123845e+000 0.000000e+000
         vertex -4.271961e+000 -2.887342e+000 0.000000e+000
         vertex -1.701800e+001 -1.905000e+001 0.000000e+000
      endloop
   endfacet
   facet normal 0.000000e+000 0.000000e+000 -1.000000e+000
      outer loop
         vertex -1.701800e+001 -1.905000e+001 0.000000e+000
         vertex -4.271961e+000 -2.887342e+000 0.000000e+000
         vertex -3.722550e+000 -3.567775e+000 0.000000e+000
      endloop
   endfacet
   facet normal 0.000000e+000 0.000000e+000 -1.000000e+000
      outer loop
         vertex -1.701800e+001 -1.905000e+001 0.000000e+000
         vertex -3.722550e+000 -3.567775e+000 0.000000e+000
         vertex -3.066048e+000 -4.145570e+000 0.000000e+000
      endloop
   endfacet
   facet normal 0.000000e+000 0.000000e+000 -1.000000e+000
      outer loop
         vertex 4.011708e+000 3.239228e+000 0.000000e+000
         vertex 3.406571e+000 3.870616e+000 0.000000e+000
         vertex 1.701800e+001 1.905000e+001 0.000000e+000
      endloop
   endfacet
   facet normal 0.000000e+000 0.000000e+000 -1.000000e+000
      outer loop
         vertex 1.701800e+001 1.905000e+001 0.000000e+000
         vertex 3.406571e+000 3.870616e+000 0.000000e+000
         vertex 2.703433e+000 4.390655e+000 0.000000e+000
      endloop
   endfacet
   facet normal 0.000000e+000 0.000000e+000 -1.000000e+000
      outer loop
         vertex 1.701800e+001 1.905000e+001 0.000000e+000
         vertex 2.703433e+000 4.390655e+000 0.000000e+000
         vertex 1.922523e+000 4.784381e+000 0.000000e+000
      endloop
   endfacet
   facet normal 0.000000e+000 0.000000e+000 -1.000000e+000
      outer loop
         vertex -4.698476e+000 2.123845e+000 0.000000e+000
         vertex -4.989825e+000 1.299249e+000 0.000000e+000
         vertex -1.701800e+001 1.905000e+001 0.000000e+000
      endloop
   endfacet
   facet normal 0.000000e+000 0.000000e+000 -1.000000e+000
      outer loop
         vertex -1.701800e+001 1.905000e+001 0.000000e+000
         vertex -4.989825e+000 1.299249e+000 0.000000e+000
         vertex -5.137625e+000 4.372763e-001 0.000000e+000
      endloop
   endfacet
   facet normal 0.000000e+000 0.000000e+000 -1.000000e+000
      outer loop
         vertex -1.701800e+001 1.905000e+001 0.000000e+000
         vertex -5.137625e+000 4.372763e-001 0.000000e+000
         vertex -1.701800e+001 -1.905000e+001 0.000000e+000
      endloop
   endfacet
   facet normal 0.000000e+000 0.000000e+000 -1.000000e+000
      outer loop
         vertex -1.701800e+001 -1.905000e+001 0.000000e+000
         vertex -5.137625e+000 4.372763e-001 0.000000e+000
         vertex -5.137625e+000 -4.372763e-001 0.000000e+000
      endloop
   endfacet
   facet normal 0.000000e+000 0.000000e+000 -1.000000e+000
      outer loop
         vertex -1.701800e+001 -1.905000e+001 0.000000e+000
         vertex -5.137625e+000 -4.372763e-001 0.000000e+000
         vertex -4.989825e+000 -1.299249e+000 0.000000e+000
      endloop
   endfacet
   facet normal 0.000000e+000 0.000000e+000 -1.000000e+000
      outer loop
         vertex -2.321341e+000 -4.604105e+000 0.000000e+000
         vertex -1.509853e+000 -4.930187e+000 0.000000e+000
         vertex -1.701800e+001 -1.905000e+001 0.000000e+000
      endloop
   endfacet
   facet normal 0.000000e+000 0.000000e+000 -1.000000e+000
      outer loop
         vertex -1.701800e+001 -1.905000e+001 0.000000e+000
         vertex -1.509853e+000 -4.930187e+000 0.000000e+000
         vertex -6.549293e-001 -5.114437e+000 0.000000e+000
      endloop
   endfacet
   facet normal 0.000000e+000 0.000000e+000 -1.000000e+000
      outer loop
         vertex -1.701800e+001 -1.905000e+001 0.000000e+000
         vertex -6.549293e-001 -5.114437e+000 0.000000e+000
         vertex 1.701800e+001 -1.905000e+001 0.000000e+000
      endloop
   endfacet
   facet normal 0.000000e+000 0.000000e+000 -1.000000e+000
      outer loop
         vertex 1.701800e+001 -1.905000e+001 0.000000e+000
         vertex -6.549293e-001 -5.114437e+000 0.000000e+000
         vertex 2.188353e-001 -5.151554e+000 0.000000e+000
      endloop
   endfacet
   facet normal 0.000000e+000 0.000000e+000 -1.000000e+000
      outer loop
         vertex 2.188353e-001 -5.151554e+000 0.000000e+000
         vertex 1.086304e+000 -5.040471e+000 0.000000e+000
         vertex 1.701800e+001 -1.905000e+001 0.000000e+000
      endloop
   endfacet
   facet normal 0.000000e+000 0.000000e+000 -1.000000e+000
      outer loop
         vertex 1.701800e+001 -1.905000e+001 0.000000e+000
         vertex 1.086304e+000 -5.040471e+000 0.000000e+000
         vertex 1.922523e+000 -4.784381e+000 0.000000e+000
      endloop
   endfacet
   facet normal 0.000000e+000 0.000000e+000 -1.000000e+000
      outer loop
         vertex 1.701800e+001 -1.905000e+001 0.000000e+000
         vertex 1.922523e+000 -4.784381e+000 0.000000e+000
         vertex 2.703433e+000 -4.390655e+000 0.000000e+000
      endloop
   endfacet
   facet normal 0.000000e+000 0.000000e+000 -1.000000e+000
      outer loop
         vertex 1.701800e+001 -1.905000e+001 0.000000e+000
         vertex 5.156200e+000 0.000000e+000 0.000000e+000
         vertex 1.701800e+001 1.905000e+001 0.000000e+000
      endloop
   endfacet
   facet normal 0.000000e+000 0.000000e+000 -1.000000e+000
      outer loop
         vertex 1.701800e+001 1.905000e+001 0.000000e+000
         vertex 5.156200e+000 0.000000e+000 0.000000e+000
         vertex 5.082033e+000 8.714020e-001 0.000000e+000
      endloop
   endfacet
   facet normal 0.000000e+000 0.000000e+000 -1.000000e+000
      outer loop
         vertex 1.701800e+001 1.905000e+001 0.000000e+000
         vertex 5.082033e+000 8.714020e-001 0.000000e+000
         vertex 4.861664e+000 1.717735e+000 0.000000e+000
      endloop
   endfacet
   facet normal 0.000000e+000 0.000000e+000 -1.000000e+000
      outer loop
         vertex -6.549293e-001 5.114437e+000 0.000000e+000
         vertex -1.701800e+001 1.905000e+001 0.000000e+000
         vertex 2.188353e-001 5.151554e+000 0.000000e+000
      endloop
   endfacet
   facet normal 0.000000e+000 0.000000e+000 -1.000000e+000
      outer loop
         vertex 2.188353e-001 5.151554e+000 0.000000e+000
         vertex -1.701800e+001 1.905000e+001 0.000000e+000
         vertex 1.701800e+001 1.905000e+001 0.000000e+000
      endloop
   endfacet
   facet normal 0.000000e+000 0.000000e+000 -1.000000e+000
      outer loop
         vertex 2.188353e-001 5.151554e+000 0.000000e+000
         vertex 1.701800e+001 1.905000e+001 0.000000e+000
         vertex 1.086304e+000 5.040471e+000 0.000000e+000
      endloop
   endfacet
   facet normal 0.000000e+000 0.000000e+000 -1.000000e+000
      outer loop
         vertex 1.086304e+000 5.040471e+000 0.000000e+000
         vertex 1.701800e+001 1.905000e+001 0.000000e+000
         vertex 1.922523e+000 4.784381e+000 0.000000e+000
      endloop
   endfacet
   facet normal 0.000000e+000 0.000000e+000 -1.000000e+000
      outer loop
         vertex -6.549293e-001 5.114437e+000 0.000000e+000
         vertex -1.509853e+000 4.930187e+000 0.000000e+000
         vertex -1.701800e+001 1.905000e+001 0.000000e+000
      endloop
   endfacet
   facet normal 0.000000e+000 0.000000e+000 -1.000000e+000
      outer loop
         vertex -1.701800e+001 1.905000e+001 0.000000e+000
         vertex -1.509853e+000 4.930187e+000 0.000000e+000
         vertex -2.321341e+000 4.604105e+000 0.000000e+000
      endloop
   endfacet
   facet normal 0.000000e+000 0.000000e+000 -1.000000e+000
      outer loop
         vertex -1.701800e+001 1.905000e+001 0.000000e+000
         vertex -2.321341e+000 4.604105e+000 0.000000e+000
         vertex -3.066048e+000 4.145570e+000 0.000000e+000
      endloop
   endfacet
   facet normal 0.000000e+000 0.000000e+000 -1.000000e+000
      outer loop
         vertex 2.703433e+000 -4.390655e+000 0.000000e+000
         vertex 3.406571e+000 -3.870616e+000 0.000000e+000
         vertex 1.701800e+001 -1.905000e+001 0.000000e+000
      endloop
   endfacet
   facet normal 0.000000e+000 0.000000e+000 -1.000000e+000
      outer loop
         vertex 1.701800e+001 -1.905000e+001 0.000000e+000
         vertex 3.406571e+000 -3.870616e+000 0.000000e+000
         vertex 4.011708e+000 -3.239228e+000 0.000000e+000
      endloop
   endfacet
   facet normal 0.000000e+000 0.000000e+000 -1.000000e+000
      outer loop
         vertex 1.701800e+001 -1.905000e+001 0.000000e+000
         vertex 4.011708e+000 -3.239228e+000 0.000000e+000
         vertex 4.501435e+000 -2.514653e+000 0.000000e+000
      endloop
   endfacet
   facet normal 0.000000e+000 0.000000e+000 -1.000000e+000
      outer loop
         vertex -3.066048e+000 4.145570e+000 0.000000e+000
         vertex -3.722550e+000 3.567775e+000 0.000000e+000
         vertex -1.701800e+001 1.905000e+001 0.000000e+000
      endloop
   endfacet
   facet normal 0.000000e+000 0.000000e+000 -1.000000e+000
      outer loop
         vertex -1.701800e+001 1.905000e+001 0.000000e+000
         vertex -3.722550e+000 3.567775e+000 0.000000e+000
         vertex -4.271961e+000 2.887342e+000 0.000000e+000
      endloop
   endfacet
   facet normal 0.000000e+000 0.000000e+000 -1.000000e+000
      outer loop
         vertex -1.701800e+001 1.905000e+001 0.000000e+000
         vertex -4.271961e+000 2.887342e+000 0.000000e+000
         vertex -4.698476e+000 2.123845e+000 0.000000e+000
      endloop
   endfacet
   facet normal 0.000000e+000 0.000000e+000 -1.000000e+000
      outer loop
         vertex 4.501435e+000 -2.514653e+000 0.000000e+000
         vertex 4.861664e+000 -1.717735e+000 0.000000e+000
         vertex 1.701800e+001 -1.905000e+001 0.000000e+000
      endloop
   endfacet
   facet normal 0.000000e+000 0.000000e+000 -1.000000e+000
      outer loop
         vertex 1.701800e+001 -1.905000e+001 0.000000e+000
         vertex 4.861664e+000 -1.717735e+000 0.000000e+000
         vertex 5.082033e+000 -8.714020e-001 0.000000e+000
      endloop
   endfacet
   facet normal 0.000000e+000 0.000000e+000 -1.000000e+000
      outer loop
         vertex 1.701800e+001 -1.905000e+001 0.000000e+000
         vertex 5.082033e+000 -8.714020e-001 0.000000e+000
         vertex 5.156200e+000 0.000000e+000 0.000000e+000
      endloop
   endfacet
   facet normal 0.000000e+000 0.000000e+000 1.000000e+000
      outer loop
         vertex 4.011708e+000 3.239228e+000 2.032000e+000
         vertex 4.501435e+000 2.514653e+000 2.032000e+000
         vertex 1.701800e+001 1.701800e+001 2.032000e+000
      endloop
   endfacet
   facet normal 0.000000e+000 0.000000e+000 1.000000e+000
      outer loop
         vertex 4.501435e+000 2.514653e+000 2.032000e+000
         vertex 4.861664e+000 1.717735e+000 2.032000e+000
         vertex 1.701800e+001 1.701800e+001 2.032000e+000
      endloop
   endfacet
   facet normal 0.000000e+000 0.000000e+000 1.000000e+000
      outer loop
         vertex 1.701800e+001 1.701800e+001 2.032000e+000
         vertex 4.861664e+000 1.717735e+000 2.032000e+000
         vertex 5.082033e+000 8.714020e-001 2.032000e+000
      endloop
   endfacet
   facet normal 0.000000e+000 0.000000e+000 1.000000e+000
      outer loop
         vertex 1.701800e+001 1.701800e+001 2.032000e+000
         vertex 5.082033e+000 8.714020e-001 2.032000e+000
         vertex 1.701800e+001 -1.701800e+001 2.032000e+000
      endloop
   endfacet
   facet normal 0.000000e+000 0.000000e+000 1.000000e+000
      outer loop
         vertex 1.701800e+001 1.701800e+001 2.032000e+000
         vertex 1.086304e+000 5.040471e+000 2.032000e+000
         vertex 1.922523e+000 4.784381e+000 2.032000e+000
      endloop
   endfacet
   facet normal 0.000000e+000 0.000000e+000 1.000000e+000
      outer loop
         vertex 1.922523e+000 4.784381e+000 2.032000e+000
         vertex 2.703433e+000 4.390655e+000 2.032000e+000
         vertex 1.701800e+001 1.701800e+001 2.032000e+000
      endloop
   endfacet
   facet normal 0.000000e+000 0.000000e+000 1.000000e+000
      outer loop
         vertex 1.701800e+001 1.701800e+001 2.032000e+000
         vertex 2.703433e+000 4.390655e+000 2.032000e+000
         vertex 3.406571e+000 3.870616e+000 2.032000e+000
      endloop
   endfacet
   facet normal 0.000000e+000 0.000000e+000 1.000000e+000
      outer loop
         vertex 1.701800e+001 1.701800e+001 2.032000e+000
         vertex 3.406571e+000 3.870616e+000 2.032000e+000
         vertex 4.011708e+000 3.239228e+000 2.032000e+000
      endloop
   endfacet
   facet normal 0.000000e+000 0.000000e+000 1.000000e+000
      outer loop
         vertex -1.509853e+000 -4.930187e+000 2.032000e+000
         vertex -2.321341e+000 -4.604105e+000 2.032000e+000
         vertex -1.701800e+001 -1.701800e+001 2.032000e+000
      endloop
   endfacet
   facet normal 0.000000e+000 0.000000e+000 1.000000e+000
      outer loop
         vertex -1.701800e+001 -1.701800e+001 2.032000e+000
         vertex -2.321341e+000 -4.604105e+000 2.032000e+000
         vertex -3.066048e+000 -4.145570e+000 2.032000e+000
      endloop
   endfacet
   facet normal 0.000000e+000 0.000000e+000 1.000000e+000
      outer loop
         vertex -4.271961e+000 2.887342e+000 2.032000e+000
         vertex -1.701800e+001 1.701800e+001 2.032000e+000
         vertex -4.698476e+000 2.123845e+000 2.032000e+000
      endloop
   endfacet
   facet normal 0.000000e+000 0.000000e+000 1.000000e+000
      outer loop
         vertex -4.698476e+000 2.123845e+000 2.032000e+000
         vertex -1.701800e+001 1.701800e+001 2.032000e+000
         vertex -4.989825e+000 1.299249e+000 2.032000e+000
      endloop
   endfacet
   facet normal 0.000000e+000 0.000000e+000 1.000000e+000
      outer loop
         vertex 5.082033e+000 8.714020e-001 2.032000e+000
         vertex 5.156200e+000 0.000000e+000 2.032000e+000
         vertex 1.701800e+001 -1.701800e+001 2.032000e+000
      endloop
   endfacet
   facet normal 0.000000e+000 0.000000e+000 1.000000e+000
      outer loop
         vertex 1.701800e+001 -1.701800e+001 2.032000e+000
         vertex 5.156200e+000 0.000000e+000 2.032000e+000
         vertex 5.082033e+000 -8.714020e-001 2.032000e+000
      endloop
   endfacet
   facet normal 0.000000e+000 0.000000e+000 1.000000e+000
      outer loop
         vertex 1.701800e+001 -1.701800e+001 2.032000e+000
         vertex 5.082033e+000 -8.714020e-001 2.032000e+000
         vertex 4.861664e+000 -1.717735e+000 2.032000e+000
      endloop
   endfacet
   facet normal 0.000000e+000 0.000000e+000 1.000000e+000
      outer loop
         vertex -3.066048e+000 -4.145570e+000 2.032000e+000
         vertex -3.722550e+000 -3.567775e+000 2.032000e+000
         vertex -1.701800e+001 -1.701800e+001 2.032000e+000
      endloop
   endfacet
   facet normal 0.000000e+000 0.000000e+000 1.000000e+000
      outer loop
         vertex -1.701800e+001 -1.701800e+001 2.032000e+000
         vertex -3.722550e+000 -3.567775e+000 2.032000e+000
         vertex -4.271961e+000 -2.887342e+000 2.032000e+000
      endloop
   endfacet
   facet normal 0.000000e+000 0.000000e+000 1.000000e+000
      outer loop
         vertex -1.701800e+001 -1.701800e+001 2.032000e+000
         vertex -4.271961e+000 -2.887342e+000 2.032000e+000
         vertex -4.698476e+000 -2.123845e+000 2.032000e+000
      endloop
   endfacet
   facet normal 0.000000e+000 0.000000e+000 1.000000e+000
      outer loop
         vertex 1.922523e+000 -4.784381e+000 2.032000e+000
         vertex 1.701800e+001 -1.701800e+001 2.032000e+000
         vertex 2.703433e+000 -4.390655e+000 2.032000e+000
      endloop
   endfacet
   facet normal 0.000000e+000 0.000000e+000 1.000000e+000
      outer loop
         vertex 2.703433e+000 -4.390655e+000 2.032000e+000
         vertex 1.701800e+001 -1.701800e+001 2.032000e+000
         vertex 3.406571e+000 -3.870616e+000 2.032000e+000
      endloop
   endfacet
   facet normal 0.000000e+000 0.000000e+000 1.000000e+000
      outer loop
         vertex -2.321341e+000 4.604105e+000 2.032000e+000
         vertex -1.509853e+000 4.930187e+000 2.032000e+000
         vertex -1.701800e+001 1.701800e+001 2.032000e+000
      endloop
   endfacet
   facet normal 0.000000e+000 0.000000e+000 1.000000e+000
      outer loop
         vertex -1.701800e+001 1.701800e+001 2.032000e+000
         vertex -1.509853e+000 4.930187e+000 2.032000e+000
         vertex -6.549293e-001 5.114437e+000 2.032000e+000
      endloop
   endfacet
   facet normal 0.000000e+000 0.000000e+000 1.000000e+000
      outer loop
         vertex -1.701800e+001 1.701800e+001 2.032000e+000
         vertex -6.549293e-001 5.114437e+000 2.032000e+000
         vertex 1.701800e+001 1.701800e+001 2.032000e+000
      endloop
   endfacet
   facet normal 0.000000e+000 0.000000e+000 1.000000e+000
      outer loop
         vertex 1.701800e+001 1.701800e+001 2.032000e+000
         vertex -6.549293e-001 5.114437e+000 2.032000e+000
         vertex 2.188353e-001 5.151554e+000 2.032000e+000
      endloop
   endfacet
   facet normal 0.000000e+000 0.000000e+000 1.000000e+000
      outer loop
         vertex 1.701800e+001 1.701800e+001 2.032000e+000
         vertex 2.188353e-001 5.151554e+000 2.032000e+000
         vertex 1.086304e+000 5.040471e+000 2.032000e+000
      endloop
   endfacet
   facet normal 0.000000e+000 0.000000e+000 1.000000e+000
      outer loop
         vertex 4.861664e+000 -1.717735e+000 2.032000e+000
         vertex 4.501435e+000 -2.514653e+000 2.032000e+000
         vertex 1.701800e+001 -1.701800e+001 2.032000e+000
      endloop
   endfacet
   facet normal 0.000000e+000 0.000000e+000 1.000000e+000
      outer loop
         vertex 1.701800e+001 -1.701800e+001 2.032000e+000
         vertex 4.501435e+000 -2.514653e+000 2.032000e+000
         vertex 4.011708e+000 -3.239228e+000 2.032000e+000
      endloop
   endfacet
   facet normal 0.000000e+000 0.000000e+000 1.000000e+000
      outer loop
         vertex 1.701800e+001 -1.701800e+001 2.032000e+000
         vertex 4.011708e+000 -3.239228e+000 2.032000e+000
         vertex 3.406571e+000 -3.870616e+000 2.032000e+000
      endloop
   endfacet
   facet normal 0.000000e+000 0.000000e+000 1.000000e+000
      outer loop
         vertex -4.271961e+000 2.887342e+000 2.032000e+000
         vertex -3.722550e+000 3.567775e+000 2.032000e+000
         vertex -1.701800e+001 1.701800e+001 2.032000e+000
      endloop
   endfacet
   facet normal 0.000000e+000 0.000000e+000 1.000000e+000
      outer loop
         vertex -1.701800e+001 1.701800e+001 2.032000e+000
         vertex -3.722550e+000 3.567775e+000 2.032000e+000
         vertex -3.066048e+000 4.145570e+000 2.032000e+000
      endloop
   endfacet
   facet normal 0.000000e+000 0.000000e+000 1.000000e+000
      outer loop
         vertex -1.701800e+001 1.701800e+001 2.032000e+000
         vertex -3.066048e+000 4.145570e+000 2.032000e+000
         vertex -2.321341e+000 4.604105e+000 2.032000e+000
      endloop
   endfacet
   facet normal 0.000000e+000 0.000000e+000 1.000000e+000
      outer loop
         vertex 1.922523e+000 -4.784381e+000 2.032000e+000
         vertex 1.086304e+000 -5.040471e+000 2.032000e+000
         vertex 1.701800e+001 -1.701800e+001 2.032000e+000
      endloop
   endfacet
   facet normal 0.000000e+000 0.000000e+000 1.000000e+000
      outer loop
         vertex 1.701800e+001 -1.701800e+001 2.032000e+000
         vertex 1.086304e+000 -5.040471e+000 2.032000e+000
         vertex 2.188353e-001 -5.151554e+000 2.032000e+000
      endloop
   endfacet
   facet normal 0.000000e+000 0.000000e+000 1.000000e+000
      outer loop
         vertex 1.701800e+001 -1.701800e+001 2.032000e+000
         vertex 2.188353e-001 -5.151554e+000 2.032000e+000
         vertex -1.701800e+001 -1.701800e+001 2.032000e+000
      endloop
   endfacet
   facet normal 0.000000e+000 0.000000e+000 1.000000e+000
      outer loop
         vertex -1.701800e+001 -1.701800e+001 2.032000e+000
         vertex 2.188353e-001 -5.151554e+000 2.032000e+000
         vertex -6.549293e-001 -5.114437e+000 2.032000e+000
      endloop
   endfacet
   facet normal 0.000000e+000 0.000000e+000 1.000000e+000
      outer loop
         vertex -1.701800e+001 -1.701800e+001 2.032000e+000
         vertex -6.549293e-001 -5.114437e+000 2.032000e+000
         vertex -1.509853e+000 -4.930187e+000 2.032000e+000
      endloop
   endfacet
   facet normal 0.000000e+000 0.000000e+000 1.000000e+000
      outer loop
         vertex -4.698476e+000 -2.123845e+000 2.032000e+000
         vertex -4.989825e+000 -1.299249e+000 2.032000e+000
         vertex -1.701800e+001 -1.701800e+001 2.032000e+000
      endloop
   endfacet
   facet normal 0.000000e+000 0.000000e+000 1.000000e+000
      outer loop
         vertex -1.701800e+001 -1.701800e+001 2.032000e+000
         vertex -4.989825e+000 -1.299249e+000 2.032000e+000
         vertex -5.137625e+000 -4.372763e-001 2.032000e+000
      endloop
   endfacet
   facet normal 0.000000e+000 0.000000e+000 1.000000e+000
      outer loop
         vertex -1.701800e+001 -1.701800e+001 2.032000e+000
         vertex -5.137625e+000 -4.372763e-001 2.032000e+000
         vertex -1.701800e+001 1.701800e+001 2.032000e+000
      endloop
   endfacet
   facet normal 0.000000e+000 0.000000e+000 1.000000e+000
      outer loop
         vertex -1.701800e+001 1.701800e+001 2.032000e+000
         vertex -5.137625e+000 -4.372763e-001 2.032000e+000
         vertex -5.137625e+000 4.372763e-001 2.032000e+000
      endloop
   endfacet
   facet normal 0.000000e+000 0.000000e+000 1.000000e+000
      outer loop
         vertex -1.701800e+001 1.701800e+001 2.032000e+000
         vertex -5.137625e+000 4.372763e-001 2.032000e+000
         vertex -4.989825e+000 1.299249e+000 2.032000e+000
      endloop
   endfacet
   facet normal -9.984018e-001 -5.651454e-002 0.000000e+000
      outer loop
         vertex 5.156200e+000 -1.262905e-015 0.000000e+000
         vertex 5.156200e+000 -1.262905e-015 2.032000e+000
         vertex 5.082033e+000 8.714020e-001 0.000000e+000
      endloop
   endfacet
   facet normal -9.935917e-001 -1.130291e-001 0.000000e+000
      outer loop
         vertex 5.082033e+000 8.714020e-001 0.000000e+000
         vertex 5.156200e+000 -1.262905e-015 2.032000e+000
         vertex 5.082033e+000 8.714020e-001 2.032000e+000
      endloop
   endfacet
   facet normal -9.744897e-001 -2.244324e-001 0.000000e+000
      outer loop
         vertex 5.082033e+000 8.714020e-001 0.000000e+000
         vertex 5.082033e+000 8.714020e-001 2.032000e+000
         vertex 4.861664e+000 1.717735e+000 0.000000e+000
      endloop
   endfacet
   facet normal -9.601977e-001 -2.793211e-001 0.000000e+000
      outer loop
         vertex 4.861664e+000 1.717735e+000 0.000000e+000
         vertex 5.082033e+000 8.714020e-001 2.032000e+000
         vertex 4.861664e+000 1.717735e+000 2.032000e+000
      endloop
   endfacet
   facet normal -9.225433e-001 -3.858936e-001 0.000000e+000
      outer loop
         vertex 4.861664e+000 1.717735e+000 0.000000e+000
         vertex 4.861664e+000 1.717735e+000 2.032000e+000
         vertex 4.501435e+000 2.514653e+000 0.000000e+000
      endloop
   endfacet
   facet normal -8.991807e-001 -4.375775e-001 0.000000e+000
      outer loop
         vertex 4.501435e+000 2.514653e+000 0.000000e+000
         vertex 4.861664e+000 1.717735e+000 2.032000e+000
         vertex 4.501435e+000 2.514653e+000 2.032000e+000
      endloop
   endfacet
   facet normal -8.440570e-001 -5.362535e-001 0.000000e+000
      outer loop
         vertex 4.501435e+000 2.514653e+000 0.000000e+000
         vertex 4.501435e+000 2.514653e+000 2.032000e+000
         vertex 4.011708e+000 3.239228e+000 0.000000e+000
      endloop
   endfacet
   facet normal -8.122959e-001 -5.832456e-001 0.000000e+000
      outer loop
         vertex 4.011708e+000 3.239228e+000 0.000000e+000
         vertex 4.501435e+000 2.514653e+000 2.032000e+000
         vertex 4.011708e+000 3.239228e+000 2.032000e+000
      endloop
   endfacet
   facet normal -7.412888e-001 -6.711863e-001 0.000000e+000
      outer loop
         vertex 4.011708e+000 3.239228e+000 0.000000e+000
         vertex 4.011708e+000 3.239228e+000 2.032000e+000
         vertex 3.406571e+000 3.870616e+000 0.000000e+000
      endloop
   endfacet
   facet normal -7.020428e-001 -7.121348e-001 0.000000e+000
      outer loop
         vertex 3.406571e+000 3.870616e+000 0.000000e+000
         vertex 4.011708e+000 3.239228e+000 2.032000e+000
         vertex 3.406571e+000 3.870616e+000 2.032000e+000
      endloop
   endfacet
   facet normal -6.171949e-001 -7.868103e-001 0.000000e+000
      outer loop
         vertex 3.406571e+000 3.870616e+000 0.000000e+000
         vertex 3.406571e+000 3.870616e+000 2.032000e+000
         vertex 2.703433e+000 4.390655e+000 0.000000e+000
      endloop
   endfacet
   facet normal -5.715931e-001 -8.205372e-001 0.000000e+000
      outer loop
         vertex 2.703433e+000 4.390655e+000 0.000000e+000
         vertex 3.406571e+000 3.870616e+000 2.032000e+000
         vertex 2.703433e+000 4.390655e+000 2.032000e+000
      endloop
   endfacet
   facet normal -4.753455e-001 -8.797992e-001 0.000000e+000
      outer loop
         vertex 2.703433e+000 4.390655e+000 0.000000e+000
         vertex 2.703433e+000 4.390655e+000 2.032000e+000
         vertex 1.922523e+000 4.784381e+000 0.000000e+000
      endloop
   endfacet
   facet normal -4.246998e-001 -9.053342e-001 0.000000e+000
      outer loop
         vertex 1.922523e+000 4.784381e+000 0.000000e+000
         vertex 2.703433e+000 4.390655e+000 2.032000e+000
         vertex 1.922523e+000 4.784381e+000 2.032000e+000
      endloop
   endfacet
   facet normal -3.198213e-001 -9.474779e-001 0.000000e+000
      outer loop
         vertex 1.922523e+000 4.784381e+000 0.000000e+000
         vertex 1.922523e+000 4.784381e+000 2.032000e+000
         vertex 1.086304e+000 5.040471e+000 0.000000e+000
      endloop
   endfacet
   facet normal -2.655886e-001 -9.640865e-001 0.000000e+000
      outer loop
         vertex 1.086304e+000 5.040471e+000 0.000000e+000
         vertex 1.922523e+000 4.784381e+000 2.032000e+000
         vertex 1.086304e+000 5.040471e+000 2.032000e+000
      endloop
   endfacet
   facet normal -1.550965e-001 -9.878993e-001 0.000000e+000
      outer loop
         vertex 1.086304e+000 5.040471e+000 0.000000e+000
         vertex 1.086304e+000 5.040471e+000 2.032000e+000
         vertex 2.188353e-001 5.151554e+000 0.000000e+000
      endloop
   endfacet
   facet normal -9.883699e-002 -9.951036e-001 0.000000e+000
      outer loop
         vertex 2.188353e-001 5.151554e+000 0.000000e+000
         vertex 1.086304e+000 5.040471e+000 2.032000e+000
         vertex 2.188353e-001 5.151554e+000 2.032000e+000
      endloop
   endfacet
   facet normal 1.409025e-002 -9.999007e-001 0.000000e+000
      outer loop
         vertex 2.188353e-001 5.151554e+000 0.000000e+000
         vertex 2.188353e-001 5.151554e+000 2.032000e+000
         vertex -6.549293e-001 5.114437e+000 0.000000e+000
      endloop
   endfacet
   facet normal 7.075802e-002 -9.974935e-001 0.000000e+000
      outer loop
         vertex -6.549293e-001 5.114437e+000 0.000000e+000
         vertex 2.188353e-001 5.151554e+000 2.032000e+000
         vertex -6.549293e-001 5.114437e+000 2.032000e+000
      endloop
   endfacet
   facet normal 1.828716e-001 -9.831368e-001 0.000000e+000
      outer loop
         vertex -6.549293e-001 5.114437e+000 0.000000e+000
         vertex -6.549293e-001 5.114437e+000 2.032000e+000
         vertex -1.509853e+000 4.930187e+000 0.000000e+000
      endloop
   endfacet
   facet normal 2.383175e-001 -9.711873e-001 0.000000e+000
      outer loop
         vertex -1.509853e+000 4.930187e+000 0.000000e+000
         vertex -6.549293e-001 5.114437e+000 2.032000e+000
         vertex -1.509853e+000 4.930187e+000 2.032000e+000
      endloop
   endfacet
   facet normal 3.463921e-001 -9.380898e-001 0.000000e+000
      outer loop
         vertex -1.509853e+000 4.930187e+000 0.000000e+000
         vertex -1.509853e+000 4.930187e+000 2.032000e+000
         vertex -2.321341e+000 4.604105e+000 0.000000e+000
      endloop
   endfacet
   facet normal 3.990209e-001 -9.169418e-001 0.000000e+000
      outer loop
         vertex -2.321341e+000 4.604105e+000 0.000000e+000
         vertex -1.509853e+000 4.930187e+000 2.032000e+000
         vertex -2.321341e+000 4.604105e+000 2.032000e+000
      endloop
   endfacet
   facet normal 4.999475e-001 -8.660557e-001 0.000000e+000
      outer loop
         vertex -2.321341e+000 4.604105e+000 0.000000e+000
         vertex -2.321341e+000 4.604105e+000 2.032000e+000
         vertex -3.066048e+000 4.145570e+000 0.000000e+000
      endloop
   endfacet
   facet normal 5.482453e-001 -8.363176e-001 0.000000e+000
      outer loop
         vertex -3.066048e+000 4.145570e+000 0.000000e+000
         vertex -2.321341e+000 4.604105e+000 2.032000e+000
         vertex -3.066048e+000 4.145570e+000 2.032000e+000
      endloop
   endfacet
   facet normal 6.391203e-001 -7.691067e-001 0.000000e+000
      outer loop
         vertex -3.066048e+000 4.145570e+000 0.000000e+000
         vertex -3.066048e+000 4.145570e+000 2.032000e+000
         vertex -3.722550e+000 3.567775e+000 0.000000e+000
      endloop
   endfacet
   facet normal 6.816977e-001 -7.316340e-001 0.000000e+000
      outer loop
         vertex -3.722550e+000 3.567775e+000 0.000000e+000
         vertex -3.066048e+000 4.145570e+000 2.032000e+000
         vertex -3.722550e+000 3.567775e+000 2.032000e+000
      endloop
   endfacet
   facet normal 7.599069e-001 -6.500320e-001 0.000000e+000
      outer loop
         vertex -3.722550e+000 3.567775e+000 0.000000e+000
         vertex -3.722550e+000 3.567775e+000 2.032000e+000
         vertex -4.271961e+000 2.887342e+000 0.000000e+000
      endloop
   endfacet
   facet normal 7.955388e-001 -6.059027e-001 0.000000e+000
      outer loop
         vertex -4.271961e+000 2.887342e+000 0.000000e+000
         vertex -3.722550e+000 3.567775e+000 2.032000e+000
         vertex -4.271961e+000 2.887342e+000 2.032000e+000
      endloop
   endfacet
   facet normal 8.588322e-001 -5.122570e-001 0.000000e+000
      outer loop
         vertex -4.271961e+000 2.887342e+000 0.000000e+000
         vertex -4.271961e+000 2.887342e+000 2.032000e+000
         vertex -4.698476e+000 2.123845e+000 0.000000e+000
      endloop
   endfacet
   facet normal 8.864937e-001 -4.627406e-001 0.000000e+000
      outer loop
         vertex -4.698476e+000 2.123845e+000 0.000000e+000
         vertex -4.271961e+000 2.887342e+000 2.032000e+000
         vertex -4.698476e+000 2.123845e+000 2.032000e+000
      endloop
   endfacet
   facet normal 9.330506e-001 -3.597453e-001 0.000000e+000
      outer loop
         vertex -4.698476e+000 2.123845e+000 0.000000e+000
         vertex -4.698476e+000 2.123845e+000 2.032000e+000
         vertex -4.989825e+000 1.299249e+000 0.000000e+000
      endloop
   endfacet
   facet normal 9.519458e-001 -3.062663e-001 0.000000e+000
      outer loop
         vertex -4.989825e+000 1.299249e+000 0.000000e+000
         vertex -4.698476e+000 2.123845e+000 2.032000e+000
         vertex -4.989825e+000 1.299249e+000 2.032000e+000
      endloop
   endfacet
   facet normal 9.804267e-001 -1.968844e-001 0.000000e+000
      outer loop
         vertex -4.989825e+000 1.299249e+000 0.000000e+000
         vertex -4.989825e+000 1.299249e+000 2.032000e+000
         vertex -5.137625e+000 4.372763e-001 0.000000e+000
      endloop
   endfacet
   facet normal 9.900123e-001 -1.409813e-001 0.000000e+000
      outer loop
         vertex -5.137625e+000 4.372763e-001 0.000000e+000
         vertex -4.989825e+000 1.299249e+000 2.032000e+000
         vertex -5.137625e+000 4.372763e-001 2.032000e+000
      endloop
   endfacet
   facet normal 9.995977e-001 -2.835944e-002 0.000000e+000
      outer loop
         vertex -5.137625e+000 4.372763e-001 0.000000e+000
         vertex -5.137625e+000 4.372763e-001 2.032000e+000
         vertex -5.137625e+000 -4.372763e-001 0.000000e+000
      endloop
   endfacet
   facet normal 9.995977e-001 2.835944e-002 0.000000e+000
      outer loop
         vertex -5.137625e+000 -4.372763e-001 0.000000e+000
         vertex -5.137625e+000 4.372763e-001 2.032000e+000
         vertex -5.137625e+000 -4.372763e-001 2.032000e+000
      endloop
   endfacet
   facet normal 9.900123e-001 1.409813e-001 0.000000e+000
      outer loop
         vertex -5.137625e+000 -4.372763e-001 0.000000e+000
         vertex -5.137625e+000 -4.372763e-001 2.032000e+000
         vertex -4.989825e+000 -1.299249e+000 0.000000e+000
      endloop
   endfacet
   facet normal 9.804267e-001 1.968844e-001 0.000000e+000
      outer loop
         vertex -4.989825e+000 -1.299249e+000 0.000000e+000
         vertex -5.137625e+000 -4.372763e-001 2.032000e+000
         vertex -4.989825e+000 -1.299249e+000 2.032000e+000
      endloop
   endfacet
   facet normal 9.519458e-001 3.062663e-001 0.000000e+000
      outer loop
         vertex -4.989825e+000 -1.299249e+000 0.000000e+000
         vertex -4.989825e+000 -1.299249e+000 2.032000e+000
         vertex -4.698476e+000 -2.123845e+000 0.000000e+000
      endloop
   endfacet
   facet normal 9.330506e-001 3.597453e-001 0.000000e+000
      outer loop
         vertex -4.698476e+000 -2.123845e+000 0.000000e+000
         vertex -4.989825e+000 -1.299249e+000 2.032000e+000
         vertex -4.698476e+000 -2.123845e+000 2.032000e+000
      endloop
   endfacet
   facet normal 8.864937e-001 4.627406e-001 0.000000e+000
      outer loop
         vertex -4.698476e+000 -2.123845e+000 0.000000e+000
         vertex -4.698476e+000 -2.123845e+000 2.032000e+000
         vertex -4.271961e+000 -2.887342e+000 0.000000e+000
      endloop
   endfacet
   facet normal 8.588322e-001 5.122570e-001 0.000000e+000
      outer loop
         vertex -4.271961e+000 -2.887342e+000 0.000000e+000
         vertex -4.698476e+000 -2.123845e+000 2.032000e+000
         vertex -4.271961e+000 -2.887342e+000 2.032000e+000
      endloop
   endfacet
   facet normal 7.955388e-001 6.059027e-001 0.000000e+000
      outer loop
         vertex -4.271961e+000 -2.887342e+000 0.000000e+000
         vertex -4.271961e+000 -2.887342e+000 2.032000e+000
         vertex -3.722550e+000 -3.567775e+000 0.000000e+000
      endloop
   endfacet
   facet normal 7.599069e-001 6.500320e-001 0.000000e+000
      outer loop
         vertex -3.722550e+000 -3.567775e+000 0.000000e+000
         vertex -4.271961e+000 -2.887342e+000 2.032000e+000
         vertex -3.722550e+000 -3.567775e+000 2.032000e+000
      endloop
   endfacet
   facet normal 6.816977e-001 7.316340e-001 0.000000e+000
      outer loop
         vertex -3.722550e+000 -3.567775e+000 0.000000e+000
         vertex -3.722550e+000 -3.567775e+000 2.032000e+000
         vertex -3.066048e+000 -4.145570e+000 0.000000e+000
      endloop
   endfacet
   facet normal 6.391203e-001 7.691067e-001 0.000000e+000
      outer loop
         vertex -3.066048e+000 -4.145570e+000 0.000000e+000
         vertex -3.722550e+000 -3.567775e+000 2.032000e+000
         vertex -3.066048e+000 -4.145570e+000 2.032000e+000
      endloop
   endfacet
   facet normal 5.482453e-001 8.363176e-001 0.000000e+000
      outer loop
         vertex -3.066048e+000 -4.145570e+000 0.000000e+000
         vertex -3.066048e+000 -4.145570e+000 2.032000e+000
         vertex -2.321341e+000 -4.604105e+000 0.000000e+000
      endloop
   endfacet
   facet normal 4.999475e-001 8.660557e-001 0.000000e+000
      outer loop
         vertex -2.321341e+000 -4.604105e+000 0.000000e+000
         vertex -3.066048e+000 -4.145570e+000 2.032000e+000
         vertex -2.321341e+000 -4.604105e+000 2.032000e+000
      endloop
   endfacet
   facet normal 3.990209e-001 9.169418e-001 0.000000e+000
      outer loop
         vertex -2.321341e+000 -4.604105e+000 0.000000e+000
         vertex -2.321341e+000 -4.604105e+000 2.032000e+000
         vertex -1.509853e+000 -4.930187e+000 0.000000e+000
      endloop
   endfacet
   facet normal 3.463921e-001 9.380898e-001 0.000000e+000
      outer loop
         vertex -1.509853e+000 -4.930187e+000 0.000000e+000
         vertex -2.321341e+000 -4.604105e+000 2.032000e+000
         vertex -1.509853e+000 -4.930187e+000 2.032000e+000
      endloop
   endfacet
   facet normal 2.383175e-001 9.711873e-001 0.000000e+000
      outer loop
         vertex -1.509853e+000 -4.930187e+000 0.000000e+000
         vertex -1.509853e+000 -4.930187e+000 2.032000e+000
         vertex -6.549293e-001 -5.114437e+000 0.000000e+000
      endloop
   endfacet
   facet normal 1.828716e-001 9.831368e-001 0.000000e+000
      outer loop
         vertex -6.549293e-001 -5.114437e+000 0.000000e+000
         vertex -1.509853e+000 -4.930187e+000 2.032000e+000
         vertex -6.549293e-001 -5.114437e+000 2.032000e+000
      endloop
   endfacet
   facet normal 7.075802e-002 9.974935e-001 0.000000e+000
      outer loop
         vertex -6.549293e-001 -5.114437e+000 0.000000e+000
         vertex -6.549293e-001 -5.114437e+000 2.032000e+000
         vertex 2.188353e-001 -5.151554e+000 0.000000e+000
      endloop
   endfacet
   facet normal 1.409025e-002 9.999007e-001 0.000000e+000
      outer loop
         vertex 2.188353e-001 -5.151554e+000 0.000000e+000
         vertex -6.549293e-001 -5.114437e+000 2.032000e+000
         vertex 2.188353e-001 -5.151554e+000 2.032000e+000
      endloop
   endfacet
   facet normal -9.883699e-002 9.951036e-001 0.000000e+000
      outer loop
         vertex 2.188353e-001 -5.151554e+000 0.000000e+000
         vertex 2.188353e-001 -5.151554e+000 2.032000e+000
         vertex 1.086304e+000 -5.040471e+000 0.000000e+000
      endloop
   endfacet
   facet normal -1.550965e-001 9.878993e-001 0.000000e+000
      outer loop
         vertex 1.086304e+000 -5.040471e+000 0.000000e+000
         vertex 2.188353e-001 -5.151554e+000 2.032000e+000
         vertex 1.086304e+000 -5.040471e+000 2.032000e+000
      endloop
   endfacet
   facet normal -2.655886e-001 9.640865e-001 0.000000e+000
      outer loop
         vertex 1.086304e+000 -5.040471e+000 0.000000e+000
         vertex 1.086304e+000 -5.040471e+000 2.032000e+000
         vertex 1.922523e+000 -4.784381e+000 0.000000e+000
      endloop
   endfacet
   facet normal -3.198213e-001 9.474779e-001 0.000000e+000
      outer loop
         vertex 1.922523e+000 -4.784381e+000 0.000000e+000
         vertex 1.086304e+000 -5.040471e+000 2.032000e+000
         vertex 1.922523e+000 -4.784381e+000 2.032000e+000
      endloop
   endfacet
   facet normal -4.246998e-001 9.053342e-001 0.000000e+000
      outer loop
         vertex 1.922523e+000 -4.784381e+000 0.000000e+000
         vertex 1.922523e+000 -4.784381e+000 2.032000e+000
         vertex 2.703433e+000 -4.390655e+000 0.000000e+000
      endloop
   endfacet
   facet normal -4.753455e-001 8.797992e-001 0.000000e+000
      outer loop
         vertex 2.703433e+000 -4.390655e+000 0.000000e+000
         vertex 1.922523e+000 -4.784381e+000 2.032000e+000
         vertex 2.703433e+000 -4.390655e+000 2.032000e+000
      endloop
   endfacet
   facet normal -5.715931e-001 8.205372e-001 0.000000e+000
      outer loop
         vertex 2.703433e+000 -4.390655e+000 0.000000e+000
         vertex 2.703433e+000 -4.390655e+000 2.032000e+000
         vertex 3.406571e+000 -3.870616e+000 0.000000e+000
      endloop
   endfacet
   facet normal -6.171949e-001 7.868103e-001 0.000000e+000
      outer loop
         vertex 3.406571e+000 -3.870616e+000 0.000000e+000
         vertex 2.703433e+000 -4.390655e+000 2.032000e+000
         vertex 3.406571e+000 -3.870616e+000 2.032000e+000
      endloop
   endfacet
   facet normal -7.020428e-001 7.121348e-001 0.000000e+000
      outer loop
         vertex 3.406571e+000 -3.870616e+000 0.000000e+000
         vertex 3.406571e+000 -3.870616e+000 2.032000e+000
         vertex 4.011708e+000 -3.239228e+000 0.000000e+000
      endloop
   endfacet
   facet normal -7.412888e-001 6.711863e-001 0.000000e+000
      outer loop
         vertex 4.011708e+000 -3.239228e+000 0.000000e+000
         vertex 3.406571e+000 -3.870616e+000 2.032000e+000
         vertex 4.011708e+000 -3.239228e+000 2.032000e+000
      endloop
   endfacet
   facet normal -8.122959e-001 5.832456e-001 0.000000e+000
      outer loop
         vertex 4.011708e+000 -3.239228e+000 0.000000e+000
         vertex 4.011708e+000 -3.239228e+000 2.032000e+000
         vertex 4.501435e+000 -2.514653e+000 0.000000e+000
      endloop
   endfacet
   facet normal -8.440570e-001 5.362535e-001 0.000000e+000
      outer loop
         vertex 4.501435e+000 -2.514653e+000 0.000000e+000
         vertex 4.011708e+000 -3.239228e+000 2.032000e+000
         vertex 4.501435e+000 -2.514653e+000 2.032000e+000
      endloop
   endfacet
   facet normal -8.991807e-001 4.375775e-001 0.000000e+000
      outer loop
         vertex 4.501435e+000 -2.514653e+000 0.000000e+000
         vertex 4.501435e+000 -2.514653e+000 2.032000e+000
         vertex 4.861664e+000 -1.717735e+000 0.000000e+000
      endloop
   endfacet
   facet normal -9.225433e-001 3.858936e-001 0.000000e+000
      outer loop
         vertex 4.861664e+000 -1.717735e+000 0.000000e+000
         vertex 4.501435e+000 -2.514653e+000 2.032000e+000
         vertex 4.861664e+000 -1.717735e+000 2.032000e+000
      endloop
   endfacet
   facet normal -9.601977e-001 2.793211e-001 0.000000e+000
      outer loop
         vertex 4.861664e+000 -1.717735e+000 0.000000e+000
         vertex 4.861664e+000 -1.717735e+000 2.032000e+000
         vertex 5.082033e+000 -8.714020e-001 0.000000e+000
      endloop
   endfacet
   facet normal -9.744897e-001 2.244324e-001 0.000000e+000
      outer loop
         vertex 5.082033e+000 -8.714020e-001 0.000000e+000
         vertex 4.861664e+000 -1.717735e+000 2.032000e+000
         vertex 5.082033e+000 -8.714020e-001 2.032000e+000
      endloop
   endfacet
   facet normal -9.935917e-001 1.130291e-001 0.000000e+000
      outer loop
         vertex 5.082033e+000 -8.714020e-001 0.000000e+000
         vertex 5.082033e+000 -8.714020e-001 2.032000e+000
         vertex 5.156200e+000 -1.262905e-015 0.000000e+000
      endloop
   endfacet
   facet normal -9.984018e-001 5.651454e-002 0.000000e+000
      outer loop
         vertex 5.156200e+000 -1.262905e-015 0.000000e+000
         vertex 5.082033e+000 -8.714020e-001 2.032000e+000
         vertex 5.156200e+000 -1.262905e-015 2.032000e+000
      endloop
   endfacet
endsolid